<svg width="213" height="224" viewBox="0 0 213 224" fill="none" xmlns="http://www.w3.org/2000/svg">
<rect width="213" height="214" rx="57.5" fill="#EFD5FF"/>
<rect x="59" y="180" width="94" height="44" rx="22" fill="#694FC2"/>
<path d="M71.7638 199.698C73.6423 199.702 75.1639 199.663 76.3287 199.58C77.4982 199.497 78.6515 199.341 79.7887 199.11L80.0304 200.802C79.2569 200.973 78.4811 201.102 77.703 201.189C76.925 201.277 76.0847 201.334 75.1823 201.362C74.2799 201.39 73.1404 201.403 71.7638 201.403H70.3274V199.698H71.7638ZM78.2279 194.041V195.768H72.4821V200.671H70.3274V194.041H78.2279ZM83.5732 193.088V201.907H81.3909V193.088H83.5732ZM86.0387 196.555V198.337H82.9655V196.555H86.0387ZM83.5732 202.674V207.363H74.1879V209.704H72.047V205.727H81.4047V204.407H72.0193V202.674H83.5732ZM84.1257 208.765V210.519H72.047V208.765H84.1257ZM92.9923 195.706C92.9877 196.889 92.7944 197.989 92.4122 199.007C92.0301 200.02 91.4615 200.899 90.7064 201.645C89.956 202.391 89.0444 202.953 87.9716 203.33L86.8114 201.583C87.7644 201.27 88.5702 200.819 89.2285 200.229C89.8869 199.635 90.3796 198.952 90.7064 198.178C91.0379 197.405 91.206 196.581 91.2106 195.706V194.041H92.9923V195.706ZM93.3929 195.609C93.3883 196.433 93.5425 197.207 93.8556 197.93C94.1687 198.652 94.6383 199.29 95.2644 199.843C95.8906 200.39 96.6503 200.807 97.5435 201.093L96.3763 202.791C95.3496 202.428 94.4818 201.898 93.7727 201.203C93.0683 200.508 92.5365 199.686 92.1774 198.738C91.8229 197.789 91.6457 196.746 91.6457 195.609V194.041H93.3929V195.609ZM101.715 193.088V203.461H99.5462V193.088H101.715ZM95.741 203.938C96.9795 203.938 98.0522 204.071 98.9592 204.338C99.8662 204.605 100.559 204.994 101.038 205.506C101.521 206.017 101.763 206.627 101.763 207.336C101.763 208.045 101.521 208.652 101.038 209.159C100.559 209.67 99.8662 210.057 98.9592 210.319C98.0568 210.586 96.9841 210.717 95.741 210.713C94.5025 210.717 93.4297 210.586 92.5227 210.319C91.6203 210.057 90.9297 209.67 90.4509 209.159C89.9721 208.652 89.7327 208.045 89.7327 207.336C89.7327 206.627 89.9744 206.017 90.4578 205.506C90.9412 204.994 91.6319 204.605 92.5296 204.338C93.432 204.071 94.5025 203.938 95.741 203.938ZM95.741 205.63C94.9214 205.63 94.2216 205.697 93.6415 205.83C93.066 205.959 92.6286 206.15 92.3294 206.403C92.0347 206.657 91.8897 206.967 91.8943 207.336C91.8897 207.69 92.0347 207.994 92.3294 208.247C92.6286 208.5 93.066 208.692 93.6415 208.82C94.2216 208.949 94.9214 209.012 95.741 209.007C96.5605 209.012 97.258 208.949 97.8335 208.82C98.4136 208.692 98.8533 208.503 99.1526 208.254C99.4564 208.001 99.6084 207.695 99.6084 207.336C99.6084 206.967 99.4564 206.657 99.1526 206.403C98.8533 206.15 98.4159 205.959 97.8404 205.83C97.2649 205.697 96.5651 205.63 95.741 205.63ZM99.8777 196.5V198.282H96.031V196.5H99.8777ZM122.503 197.115V198.855H117.931V197.115H122.503ZM113.856 193.862C114.722 193.862 115.507 194.039 116.211 194.394C116.916 194.744 117.468 195.236 117.869 195.872C118.274 196.502 118.479 197.214 118.484 198.006C118.479 198.807 118.274 199.525 117.869 200.16C117.468 200.796 116.916 201.293 116.211 201.652C115.507 202.006 114.722 202.184 113.856 202.184C112.963 202.184 112.162 202.006 111.453 201.652C110.749 201.293 110.196 200.796 109.796 200.16C109.395 199.525 109.197 198.807 109.202 198.006C109.197 197.214 109.395 196.502 109.796 195.872C110.196 195.236 110.751 194.744 111.46 194.394C112.169 194.039 112.968 193.862 113.856 193.862ZM113.856 195.678C113.355 195.674 112.906 195.768 112.51 195.961C112.118 196.15 111.812 196.422 111.591 196.776C111.375 197.131 111.267 197.541 111.267 198.006C111.267 198.471 111.375 198.88 111.591 199.235C111.812 199.589 112.118 199.866 112.51 200.064C112.906 200.257 113.355 200.354 113.856 200.354C114.349 200.354 114.789 200.257 115.176 200.064C115.562 199.866 115.864 199.589 116.08 199.235C116.301 198.88 116.412 198.471 116.412 198.006C116.412 197.541 116.301 197.131 116.08 196.776C115.864 196.422 115.562 196.15 115.176 195.961C114.793 195.768 114.354 195.674 113.856 195.678ZM123.746 193.088V202.564H121.577V193.088H123.746ZM114.257 203.378V205.25H121.577V203.378H123.746V210.519H112.109V203.378H114.257ZM114.257 208.758H121.577V206.942H114.257V208.758ZM132.302 196.134C132.297 197.234 132.102 198.27 131.715 199.242C131.333 200.213 130.766 201.063 130.016 201.79C129.27 202.517 128.372 203.058 127.323 203.413L126.204 201.7C127.111 201.396 127.889 200.957 128.538 200.381C129.192 199.801 129.684 199.145 130.016 198.413C130.352 197.676 130.52 196.917 130.52 196.134V194.849H132.302V196.134ZM132.73 196.113C132.73 196.845 132.887 197.554 133.2 198.24C133.517 198.926 133.989 199.543 134.615 200.091C135.242 200.634 135.997 201.053 136.881 201.348L135.796 203.033C134.77 202.697 133.893 202.181 133.165 201.486C132.438 200.791 131.887 199.983 131.515 199.062C131.142 198.137 130.957 197.154 130.962 196.113V194.849H132.73V196.113ZM139.484 197.453V199.235H135.865V197.453H139.484ZM136.383 194.152V195.892H126.839V194.152H136.383ZM141.031 204.449V210.727H138.863V206.196H128.994V204.449H141.031ZM141.031 193.088V203.613H138.863V193.088H141.031Z" fill="white"/>
<g filter="url(#filter0_dd_388_6618)">
<g filter="url(#filter1_d_388_6618)">
<path d="M49 43.0337C49 35.8354 54.8354 30 62.0337 30H151.966C159.165 30 165 35.8354 165 43.0337V135.532C165 141.03 161.55 145.937 156.376 147.797L111.41 163.965C108.559 164.99 105.441 164.99 102.59 163.965L57.6238 147.797C52.4501 145.937 49 141.03 49 135.532V43.0337Z" fill="#3B2A75"/>
</g>
<path d="M49 43.0337C49 35.8354 54.8354 30 62.0337 30H149.36C156.558 30 162.393 35.8354 162.393 43.0337V132.204C162.393 137.711 158.931 142.625 153.744 144.478L110.081 160.074C107.246 161.087 104.147 161.087 101.312 160.074L57.6493 144.478C52.4623 142.625 49 137.711 49 132.204V43.0337Z" fill="#8462F5"/>
<g filter="url(#filter2_ii_388_6618)">
<path d="M54.2135 49.5505C54.2135 42.3522 60.0489 36.5168 67.2472 36.5168H144.146C151.344 36.5168 157.18 42.3522 157.18 49.5506V127.668C157.18 133.188 153.703 138.109 148.5 139.953L110.051 153.58C107.234 154.579 104.159 154.579 101.343 153.58L62.8931 139.953C57.6904 138.109 54.2135 133.188 54.2135 127.668V49.5505Z" fill="#8462F5"/>
</g>
<path d="M67.2477 37.1682H144.146C150.985 37.1682 156.528 42.7126 156.528 49.551V127.668C156.528 132.912 153.225 137.586 148.283 139.338L109.833 152.966C107.157 153.914 104.236 153.914 101.56 152.966L63.111 139.338C58.1686 137.586 54.865 132.912 54.8649 127.668V49.551C54.8649 42.7126 60.4093 37.1682 67.2477 37.1682Z" stroke="#F0D4FF" stroke-width="1.30337"/>
<path opacity="0.2" d="M106.349 37.8113V152.524C107.635 152.469 108.914 152.223 110.144 151.787L147.202 138.638C152.402 136.793 155.876 131.873 155.876 126.355V50.8445C155.876 43.6465 150.041 37.8114 142.843 37.8113H106.349Z" fill="url(#paint0_linear_388_6618)"/>
<g filter="url(#filter3_dd_388_6618)">
<path d="M72.4606 65.2213C72.4606 59.2451 77.3053 54.4003 83.2816 54.4003H128.111C134.088 54.4003 138.932 59.2451 138.932 65.2213V117.781C138.932 122.049 135.472 125.51 131.203 125.51H80.1899C75.9211 125.51 72.4606 122.049 72.4606 117.781V65.2213Z" fill="#8E43C7"/>
<rect x="72.4604" y="111.597" width="66.4719" height="13.9127" rx="6.95636" fill="#672D8B"/>
<rect opacity="0.3" x="83.282" y="54.4003" width="3.09172" height="57.1968" fill="black"/>
<g filter="url(#filter4_d_388_6618)">
<rect x="83.282" y="114.689" width="52.5592" height="6.18343" rx="3.09172" fill="#EEC9FF"/>
</g>
<g filter="url(#filter5_d_388_6618)">
<path d="M95.3257 90.9506V77.8322H97.6766V88.9649H103.467V90.9506H95.3257ZM105.744 77.8322L109.165 88.177H109.299L112.72 77.8322H115.308L110.683 90.9506H107.775L103.15 77.8322H105.744ZM121.399 91.13C120.536 91.13 119.759 90.9698 119.067 90.6496C118.376 90.3293 117.827 89.8852 117.421 89.3172C117.016 88.7493 116.802 88.1066 116.781 87.3892H119.074C119.104 87.7436 119.223 88.0596 119.433 88.3372C119.646 88.6148 119.924 88.8325 120.265 88.9905C120.611 89.1443 120.989 89.2211 121.399 89.2211C121.882 89.2211 122.315 89.1144 122.699 88.9009C123.084 88.6831 123.383 88.3842 123.596 88.0041C123.814 87.6198 123.923 87.1863 123.923 86.7038C123.923 86.2127 123.812 85.7729 123.59 85.3843C123.372 84.9957 123.065 84.6925 122.667 84.4747C122.27 84.2526 121.824 84.1395 121.329 84.1352C120.812 84.1309 120.37 84.2227 120.003 84.4106C119.635 84.5942 119.351 84.8761 119.151 85.2561H116.973L117.754 77.8322H125.505V79.8051H119.702L119.304 83.2897H119.42C119.591 83.0975 119.806 82.9267 120.067 82.7772C120.332 82.6278 120.626 82.5103 120.951 82.4249C121.275 82.3395 121.615 82.2968 121.969 82.2968C122.772 82.2968 123.496 82.4826 124.141 82.8541C124.785 83.2256 125.291 83.7423 125.659 84.4042C126.026 85.0661 126.21 85.8113 126.21 86.6397C126.21 87.5023 126.005 88.2753 125.595 88.9585C125.189 89.6375 124.621 90.1692 123.891 90.5535C123.165 90.9378 122.334 91.13 121.399 91.13Z" fill="url(#paint1_linear_388_6618)"/>
</g>
</g>
</g>
<defs>
<filter id="filter0_dd_388_6618" x="40.2821" y="24.7692" width="133.436" height="152.17" filterUnits="userSpaceOnUse" color-interpolation-filters="sRGB">
<feFlood flood-opacity="0" result="BackgroundImageFix"/>
<feColorMatrix in="SourceAlpha" type="matrix" values="0 0 0 0 0 0 0 0 0 0 0 0 0 0 0 0 0 0 127 0" result="hardAlpha"/>
<feOffset dy="3.48718"/>
<feGaussianBlur stdDeviation="4.35897"/>
<feComposite in2="hardAlpha" operator="out"/>
<feColorMatrix type="matrix" values="0 0 0 0 0 0 0 0 0 0 0 0 0 0 0 0 0 0 0.1 0"/>
<feBlend mode="normal" in2="BackgroundImageFix" result="effect1_dropShadow_388_6618"/>
<feColorMatrix in="SourceAlpha" type="matrix" values="0 0 0 0 0 0 0 0 0 0 0 0 0 0 0 0 0 0 127 0" result="hardAlpha"/>
<feOffset dy="2"/>
<feGaussianBlur stdDeviation="2"/>
<feComposite in2="hardAlpha" operator="out"/>
<feColorMatrix type="matrix" values="0 0 0 0 0 0 0 0 0 0 0 0 0 0 0 0 0 0 0.1 0"/>
<feBlend mode="normal" in2="effect1_dropShadow_388_6618" result="effect2_dropShadow_388_6618"/>
<feBlend mode="normal" in="SourceGraphic" in2="effect2_dropShadow_388_6618" result="shape"/>
</filter>
<filter id="filter1_d_388_6618" x="40.2821" y="24.7692" width="133.436" height="152.17" filterUnits="userSpaceOnUse" color-interpolation-filters="sRGB">
<feFlood flood-opacity="0" result="BackgroundImageFix"/>
<feColorMatrix in="SourceAlpha" type="matrix" values="0 0 0 0 0 0 0 0 0 0 0 0 0 0 0 0 0 0 127 0" result="hardAlpha"/>
<feOffset dy="3.48718"/>
<feGaussianBlur stdDeviation="4.35897"/>
<feComposite in2="hardAlpha" operator="out"/>
<feColorMatrix type="matrix" values="0 0 0 0 0 0 0 0 0 0 0 0 0 0 0 0 0 0 0.1 0"/>
<feBlend mode="normal" in2="BackgroundImageFix" result="effect1_dropShadow_388_6618"/>
<feBlend mode="normal" in="SourceGraphic" in2="effect1_dropShadow_388_6618" result="shape"/>
</filter>
<filter id="filter2_ii_388_6618" x="54.2135" y="36.5168" width="102.966" height="119.116" filterUnits="userSpaceOnUse" color-interpolation-filters="sRGB">
<feFlood flood-opacity="0" result="BackgroundImageFix"/>
<feBlend mode="normal" in="SourceGraphic" in2="BackgroundImageFix" result="shape"/>
<feColorMatrix in="SourceAlpha" type="matrix" values="0 0 0 0 0 0 0 0 0 0 0 0 0 0 0 0 0 0 127 0" result="hardAlpha"/>
<feOffset dy="1.30337"/>
<feGaussianBlur stdDeviation="6.51685"/>
<feComposite in2="hardAlpha" operator="arithmetic" k2="-1" k3="1"/>
<feColorMatrix type="matrix" values="0 0 0 0 0 0 0 0 0 0 0 0 0 0 0 0 0 0 0.5 0"/>
<feBlend mode="normal" in2="shape" result="effect1_innerShadow_388_6618"/>
<feColorMatrix in="SourceAlpha" type="matrix" values="0 0 0 0 0 0 0 0 0 0 0 0 0 0 0 0 0 0 127 0" result="hardAlpha"/>
<feOffset dy="1.30337"/>
<feGaussianBlur stdDeviation="2.60674"/>
<feComposite in2="hardAlpha" operator="arithmetic" k2="-1" k3="1"/>
<feColorMatrix type="matrix" values="0 0 0 0 0 0 0 0 0 0 0 0 0 0 0 0 0 0 0.25 0"/>
<feBlend mode="normal" in2="effect1_innerShadow_388_6618" result="effect2_innerShadow_388_6618"/>
</filter>
<filter id="filter3_dd_388_6618" x="59.4267" y="46.5801" width="92.5395" height="97.1769" filterUnits="userSpaceOnUse" color-interpolation-filters="sRGB">
<feFlood flood-opacity="0" result="BackgroundImageFix"/>
<feColorMatrix in="SourceAlpha" type="matrix" values="0 0 0 0 0 0 0 0 0 0 0 0 0 0 0 0 0 0 127 0" result="hardAlpha"/>
<feOffset dy="1.30337"/>
<feGaussianBlur stdDeviation="1.30337"/>
<feComposite in2="hardAlpha" operator="out"/>
<feColorMatrix type="matrix" values="0 0 0 0 0 0 0 0 0 0 0 0 0 0 0 0 0 0 0.25 0"/>
<feBlend mode="normal" in2="BackgroundImageFix" result="effect1_dropShadow_388_6618"/>
<feColorMatrix in="SourceAlpha" type="matrix" values="0 0 0 0 0 0 0 0 0 0 0 0 0 0 0 0 0 0 127 0" result="hardAlpha"/>
<feOffset dy="5.21348"/>
<feGaussianBlur stdDeviation="6.51685"/>
<feComposite in2="hardAlpha" operator="out"/>
<feColorMatrix type="matrix" values="0 0 0 0 0 0 0 0 0 0 0 0 0 0 0 0 0 0 0.25 0"/>
<feBlend mode="normal" in2="effect1_dropShadow_388_6618" result="effect2_dropShadow_388_6618"/>
<feBlend mode="normal" in="SourceGraphic" in2="effect2_dropShadow_388_6618" result="shape"/>
</filter>
<filter id="filter4_d_388_6618" x="80.1903" y="113.143" width="58.7426" height="12.3668" filterUnits="userSpaceOnUse" color-interpolation-filters="sRGB">
<feFlood flood-opacity="0" result="BackgroundImageFix"/>
<feColorMatrix in="SourceAlpha" type="matrix" values="0 0 0 0 0 0 0 0 0 0 0 0 0 0 0 0 0 0 127 0" result="hardAlpha"/>
<feOffset dy="1.54586"/>
<feGaussianBlur stdDeviation="1.54586"/>
<feComposite in2="hardAlpha" operator="out"/>
<feColorMatrix type="matrix" values="0 0 0 0 0 0 0 0 0 0 0 0 0 0 0 0 0 0 0.25 0"/>
<feBlend mode="normal" in2="BackgroundImageFix" result="effect1_dropShadow_388_6618"/>
<feBlend mode="normal" in="SourceGraphic" in2="effect1_dropShadow_388_6618" result="shape"/>
</filter>
<filter id="filter5_d_388_6618" x="95.3257" y="77.8322" width="30.8839" height="14.8437" filterUnits="userSpaceOnUse" color-interpolation-filters="sRGB">
<feFlood flood-opacity="0" result="BackgroundImageFix"/>
<feColorMatrix in="SourceAlpha" type="matrix" values="0 0 0 0 0 0 0 0 0 0 0 0 0 0 0 0 0 0 127 0" result="hardAlpha"/>
<feOffset dy="1.54586"/>
<feComposite in2="hardAlpha" operator="out"/>
<feColorMatrix type="matrix" values="0 0 0 0 0.403922 0 0 0 0 0.176471 0 0 0 0 0.545098 0 0 0 1 0"/>
<feBlend mode="normal" in2="BackgroundImageFix" result="effect1_dropShadow_388_6618"/>
<feBlend mode="normal" in="SourceGraphic" in2="effect1_dropShadow_388_6618" result="shape"/>
</filter>
<linearGradient id="paint0_linear_388_6618" x1="131.113" y1="37.8113" x2="131.113" y2="152.524" gradientUnits="userSpaceOnUse">
<stop stop-color="#6F4FDB"/>
<stop offset="1"/>
</linearGradient>
<linearGradient id="paint1_linear_388_6618" x1="111.102" y1="72.9506" x2="111.102" y2="94.9506" gradientUnits="userSpaceOnUse">
<stop stop-color="white"/>
<stop offset="1" stop-color="#DAC1E6"/>
</linearGradient>
</defs>
</svg>
