<svg width="96" height="60" viewBox="0 0 96 60" fill="none" xmlns="http://www.w3.org/2000/svg">
<path d="M84.4668 37.3617C85.4365 39.8477 84.1988 42.6564 81.6549 43.5003C60.8085 50.4163 38.2578 50.4 17.4216 43.4539C14.8789 42.6062 13.6452 39.7958 14.6187 37.3112C15.5921 34.8267 18.404 33.6103 20.9511 34.445C39.5177 40.5302 59.563 40.5447 78.1386 34.4864C80.6868 33.6553 83.4969 34.8757 84.4668 37.3617Z" fill="#C26DEF"/>
<path d="M39.7204 42.3155C39.7721 42.3003 39.8506 42.2866 39.9559 42.2744C40.0662 42.2584 40.1744 42.2578 40.2803 42.2727C40.4658 42.2988 40.6163 42.3493 40.7319 42.4241C40.848 42.4945 40.9119 42.5845 40.9235 42.6942C40.9466 42.8821 40.9668 43.0583 40.9842 43.2229C41.0066 43.3836 41.0275 43.5396 41.0467 43.691C41.0666 43.8378 41.0842 43.9844 41.0997 44.1307C41.1195 44.2776 41.1362 44.4308 41.1498 44.5903L41.1829 44.595C41.2606 44.3312 41.3319 44.0801 41.397 43.8416C41.4627 43.5986 41.5253 43.362 41.5847 43.1317C41.6447 42.897 41.7042 42.6667 41.763 42.4408C41.8224 42.2105 41.8821 41.978 41.9421 41.7433C42.1186 41.6735 42.2995 41.6517 42.485 41.6778C42.6484 41.7008 42.7847 41.756 42.894 41.8434C43.0032 41.9308 43.0461 42.0585 43.0225 42.2263C43.0088 42.3234 42.9782 42.4609 42.9307 42.6389C42.8881 42.813 42.8337 43.008 42.7673 43.2238C42.7053 43.4402 42.6352 43.6668 42.5568 43.9034C42.4785 44.1401 42.3995 44.3654 42.3199 44.5793C42.2403 44.7933 42.1612 44.987 42.0828 45.1606C42.0093 45.3304 41.9437 45.4608 41.8859 45.5517C41.811 45.6042 41.6956 45.6398 41.5399 45.6584C41.3842 45.677 41.2268 45.6751 41.0679 45.6528C40.8603 45.6236 40.6874 45.5722 40.5492 45.4987C40.416 45.4214 40.341 45.3299 40.3244 45.2239C40.2919 45.0392 40.2596 44.8208 40.2275 44.5686C40.1954 44.3164 40.1624 44.0394 40.1283 43.7374C40.0261 44.0157 39.9226 44.2871 39.8179 44.5515C39.7131 44.816 39.6209 45.0394 39.5412 45.2218C39.4662 45.2743 39.3598 45.3111 39.2217 45.3322C39.0836 45.3533 38.9351 45.3527 38.7762 45.3303C38.5774 45.3024 38.4001 45.2504 38.2442 45.1744C38.0933 45.0947 38.0007 45.0006 37.9665 44.8922C37.9379 44.8071 37.9102 44.6839 37.8834 44.5225C37.8616 44.3573 37.8404 44.172 37.8198 43.9664C37.7998 43.7565 37.7797 43.5308 37.7597 43.2893C37.744 43.0484 37.7306 42.8079 37.7194 42.5676C37.7126 42.328 37.707 42.0953 37.7028 41.8696C37.6991 41.6394 37.7015 41.4303 37.7099 41.2424C37.7798 41.1937 37.8734 41.1528 37.9906 41.1198C38.1079 41.0867 38.2305 41.0792 38.3585 41.0972C38.5263 41.1208 38.6579 41.1776 38.7534 41.2676C38.8538 41.3538 38.9052 41.4849 38.9074 41.6608C38.9147 42.1211 38.9193 42.5045 38.9212 42.811C38.9275 43.1181 38.9303 43.3707 38.9294 43.5687C38.9336 43.7629 38.9349 43.9139 38.9332 44.0218C38.9316 44.1296 38.933 44.2154 38.9376 44.2791L38.9707 44.2837C39.0353 44.1127 39.0958 43.9546 39.1522 43.8094C39.2087 43.6643 39.2651 43.5191 39.3216 43.3739C39.3831 43.225 39.4458 43.0672 39.5098 42.9006C39.5744 42.7295 39.6446 42.5345 39.7204 42.3155ZM43.5202 43.8774C43.5371 43.53 43.6056 43.2253 43.7255 42.9633C43.8499 42.7015 44.01 42.4861 44.2058 42.317C44.4062 42.1438 44.6356 42.0166 44.8941 41.9355C45.157 41.8545 45.4376 41.8214 45.736 41.8359C46.0344 41.8505 46.3083 41.9108 46.5576 42.0167C46.8113 42.1228 47.0295 42.2719 47.2121 42.4638C47.3949 42.6514 47.5333 42.8813 47.6271 43.1538C47.7254 43.4264 47.7661 43.7365 47.7491 44.0839C47.7321 44.4313 47.6636 44.7382 47.5434 45.0047C47.4235 45.2667 47.2633 45.4843 47.0629 45.6576C46.8671 45.8266 46.6378 45.9516 46.3749 46.0325C46.112 46.1134 45.8291 46.1465 45.5262 46.1317C45.2234 46.1169 44.9451 46.0564 44.6913 45.9503C44.4378 45.8397 44.2219 45.6885 44.0438 45.4968C43.8657 45.305 43.7297 45.0729 43.6358 44.8005C43.542 44.528 43.5034 44.2203 43.5202 43.8774ZM44.7227 43.9361C44.7029 44.3414 44.7705 44.6483 44.9255 44.8568C45.0805 45.0652 45.2961 45.1762 45.5722 45.1897C45.8528 45.2034 46.0804 45.114 46.255 44.9217C46.4296 44.7293 46.5268 44.4305 46.5466 44.0252C46.5661 43.6243 46.4984 43.3197 46.3434 43.1112C46.1929 42.9029 45.9773 42.792 45.6967 42.7783C45.4206 42.7648 45.193 42.8541 45.0139 43.0463C44.8396 43.2342 44.7425 43.5308 44.7227 43.9361ZM49.9295 44.8142L49.9487 46.0983C49.8999 46.1124 49.8221 46.127 49.7153 46.142C49.6129 46.1569 49.5105 46.1651 49.4079 46.1666C49.3054 46.1682 49.2138 46.1606 49.1333 46.144C49.0573 46.1318 48.9923 46.106 48.9382 46.0667C48.8885 46.0273 48.8498 45.9721 48.8219 45.9012C48.7941 45.8302 48.7793 45.7368 48.7776 45.6209L48.7304 42.4708C48.729 42.3772 48.7524 42.3055 48.8007 42.2557C48.8534 42.2014 48.9241 42.158 49.0128 42.1254C49.1636 42.0697 49.3392 42.0291 49.5395 42.0038C49.7397 41.9741 49.9535 41.9575 50.1809 41.9541C50.7962 41.9448 51.2619 42.0672 51.5778 42.3211C51.8938 42.575 52.0551 42.9227 52.0617 43.3641C52.0659 43.6405 51.9981 43.8779 51.8584 44.0762C51.7186 44.2745 51.5515 44.4287 51.3569 44.5386C51.5207 44.7547 51.682 44.9574 51.841 45.1468C51.9999 45.3362 52.1251 45.5082 52.2166 45.663C52.1744 45.8197 52.0937 45.9413 51.9746 46.0278C51.8599 46.1098 51.7289 46.1519 51.5818 46.1541C51.4837 46.1556 51.3988 46.1457 51.3272 46.1245C51.2555 46.1033 51.1926 46.073 51.1385 46.0337C51.0844 45.9943 51.0346 45.946 50.9892 45.8887C50.9437 45.8314 50.9004 45.7697 50.8593 45.7034L50.2839 44.8089L49.9295 44.8142ZM50.3375 43.9184C50.5069 43.9159 50.64 43.8715 50.7369 43.7853C50.8336 43.6947 50.8807 43.5647 50.8782 43.3952C50.8756 43.2258 50.818 43.0996 50.7053 43.0165C50.5969 42.9289 50.4246 42.8869 50.1883 42.8905C50.1214 42.8915 50.0679 42.8945 50.0279 42.8996C49.9878 42.9046 49.9433 42.912 49.8944 42.9216L49.9095 43.9248L50.3375 43.9184ZM53.9492 46.0322C53.7579 46.0447 53.603 45.9989 53.4845 45.8949C53.366 45.7909 53.3005 45.6433 53.288 45.4519L53.0631 42.0012C53.1114 41.9891 53.1886 41.9729 53.2945 41.9526C53.4001 41.9278 53.5019 41.9123 53.5998 41.9059C53.7021 41.8992 53.7917 41.9023 53.8685 41.9152C53.9495 41.9233 54.018 41.9456 54.074 41.9822C54.13 42.0188 54.1736 42.0718 54.205 42.1412C54.2363 42.2107 54.2558 42.3033 54.2633 42.419L54.4352 45.0554L55.9637 44.9558C55.998 45.0027 56.0313 45.0675 56.0635 45.1503C56.0954 45.2287 56.1143 45.3124 56.1201 45.4014C56.1317 45.5793 56.1021 45.7086 56.0314 45.7892C55.9604 45.8653 55.8626 45.9075 55.738 45.9156L53.9492 46.0322ZM58.2727 44.7835C58.3224 44.7869 58.3832 44.789 58.4551 44.7898C58.5265 44.7862 58.5932 44.7809 58.6552 44.7739C58.8059 44.7568 58.9407 44.7191 59.0598 44.6608C59.1833 44.6019 59.284 44.5209 59.3621 44.4179C59.4446 44.3143 59.502 44.1866 59.5342 44.0349C59.5703 43.8782 59.5766 43.6957 59.553 43.4875C59.5078 43.0887 59.3809 42.8002 59.1722 42.6219C58.9631 42.4391 58.7034 42.3653 58.3932 42.4004C58.3312 42.4074 58.2672 42.4169 58.2013 42.4289C58.1397 42.4403 58.0762 42.4543 58.0108 42.4706L58.2727 44.7835ZM58.7547 45.7118C58.6794 45.7203 58.5927 45.7278 58.4948 45.7345C58.3968 45.7411 58.2939 45.7437 58.186 45.7425C58.0826 45.7407 57.9765 45.7348 57.8676 45.7247C57.7637 45.7185 57.6654 45.7027 57.5728 45.6773C57.3186 45.6118 57.1784 45.4639 57.1523 45.2335L56.8009 42.1297C56.7904 42.0367 56.8067 41.963 56.8499 41.9087C56.8971 41.8496 56.9632 41.7994 57.0483 41.7584C57.2318 41.6748 57.4289 41.6121 57.6396 41.5703C57.8497 41.524 58.039 41.4914 58.2074 41.4723C58.553 41.4332 58.8701 41.4399 59.1588 41.4925C59.4519 41.5446 59.7082 41.6479 59.9276 41.8026C60.151 41.9523 60.3332 42.1538 60.474 42.4071C60.6149 42.6605 60.7059 42.9688 60.747 43.3321C60.7872 43.6866 60.7691 44.0027 60.6929 44.2806C60.6161 44.5541 60.4884 44.7929 60.3095 44.9972C60.1347 45.1965 59.9149 45.356 59.6502 45.4757C59.3855 45.5955 59.087 45.6741 58.7547 45.7118Z" fill="white"/>
<path d="M30.5431 11.8024C31.8241 11.8024 32.8632 12.8407 32.8634 14.1217V19.7174C33.7735 19.0507 34.5724 18.2666 35.2316 17.3883C35.8455 16.5705 36.9244 16.1648 37.8634 16.5699C38.8949 17.015 39.3431 18.2492 38.6905 19.1637C37.4681 20.8766 35.859 22.3392 33.963 23.4479C33.6046 23.6574 33.2371 23.8513 32.8634 24.0328V29.4899C32.8632 30.7708 31.824 31.8092 30.5431 31.8092C29.2623 31.8089 28.224 30.7706 28.2237 29.4899V25.4957C27.3372 25.6397 26.4354 25.7173 25.5274 25.7203C24.5805 25.7235 23.6394 25.6478 22.7149 25.4977V29.4899C22.7147 30.7706 21.6764 31.809 20.3956 31.8092C19.1147 31.8092 18.0755 30.7708 18.0753 29.4899V24.0338C17.7357 23.8689 17.4013 23.6936 17.0743 23.5055C15.1693 22.4096 13.5488 20.9573 12.3126 19.2526C11.6531 18.343 12.0917 17.1052 13.1202 16.653C14.0554 16.2418 15.1358 16.6393 15.755 17.4518C16.4048 18.3046 17.1875 19.066 18.0753 19.7164V14.1217C18.0754 12.8407 19.1146 11.8024 20.3956 11.8024C21.6764 11.8026 22.7148 12.8409 22.7149 14.1217V21.7965C23.6271 21.9965 24.5659 22.0985 25.5128 22.0953C26.4304 22.0922 27.3398 21.9894 28.2237 21.7955V14.1217C28.2239 12.8409 29.2623 11.8026 30.5431 11.8024Z" fill="#FFD449"/>
<path d="M62.5849 11C63.9269 11.0003 65.0668 11.4532 65.9589 12.2275C66.822 12.9769 67.3795 13.9605 67.7323 14.9395C68.428 16.8702 68.458 19.1383 68.1415 20.8115C67.669 23.3087 66.4896 25.5376 64.9677 27.3047C65.1433 27.4552 65.3167 27.5915 65.4872 27.71C66.0905 28.129 66.5265 28.252 66.789 28.252C67.7532 28.2517 68.4699 27.855 68.9774 27.4209C69.2327 27.2024 69.4241 26.9823 69.5477 26.8223C69.6085 26.7435 69.652 26.6814 69.6757 26.6455C69.6779 26.6421 69.6797 26.6386 69.6815 26.6357C69.3599 25.8443 69.1634 24.9884 69.1181 24.0928L69.1083 23.6904C69.1085 19.3669 72.6138 15.8613 76.9374 15.8613L77.3397 15.8711C81.4758 16.081 84.7653 19.5022 84.7655 23.6904L84.7558 24.0928C84.5462 28.2289 81.1255 31.518 76.9374 31.5186L76.5341 31.5088C74.6615 31.4139 72.9619 30.661 71.663 29.4766C71.5116 29.6334 71.3425 29.7993 71.1513 29.9629C70.2183 30.7608 68.7592 31.5964 66.789 31.5967C65.5839 31.5967 64.4817 31.0841 63.579 30.457C63.2017 30.1949 62.837 29.8952 62.4862 29.5723C60.742 30.8135 58.7451 31.5965 56.7851 31.5967C54.3801 31.5965 52.3944 30.4826 50.869 29.0625C50.0695 29.7577 49.3217 30.3342 48.7528 30.7451C48.4343 30.9752 48.1695 31.1569 47.9823 31.2822C47.8892 31.3446 47.8142 31.3937 47.7616 31.4277C47.7358 31.4445 47.7141 31.4582 47.6991 31.4678C47.6922 31.4722 47.6859 31.4766 47.6815 31.4795C47.6798 31.4806 47.6772 31.4817 47.6757 31.4824L47.6728 31.4844C47.256 31.8001 46.8302 32.1112 46.4149 32.3965C45.6917 32.8933 44.8963 33.3856 44.1981 33.6572C42.858 34.1783 41.3339 34.2603 40.0048 34.0283C39.735 33.9812 39.4578 33.9169 39.1806 33.8359L39.0253 33.7969C38.863 33.7443 38.7037 33.6829 38.5458 33.6182C38.4888 33.5952 38.4324 33.5705 38.3759 33.5459C38.2997 33.5122 38.2243 33.4769 38.1493 33.4404C38.1039 33.4183 38.0584 33.3963 38.0136 33.373C37.8546 33.2913 37.6974 33.2056 37.5448 33.1113L37.3476 32.9844C36.3451 32.316 35.5376 31.3936 35.0077 30.3115C34.4778 29.2295 34.2443 28.0259 34.331 26.8242C34.4069 25.7729 34.7259 24.7558 35.2597 23.8516L35.5009 23.4707C36.1806 22.476 37.1121 21.6787 38.2001 21.1611C38.213 21.155 38.2262 21.1496 38.2392 21.1436C39.508 20.4945 40.7598 20.3746 41.8827 20.5459C43.0154 20.6724 44.0997 21.0785 45.0351 21.7334C45.5487 22.0931 46.0087 22.5198 46.4022 23.001C46.517 23.1413 46.5943 23.2932 46.6405 23.4492C46.8184 23.7648 46.893 24.1311 46.8436 24.4951C46.7811 24.9548 46.5301 25.3681 46.1513 25.6357L39.5341 30.3057C39.6259 30.3718 39.7159 30.4416 39.8036 30.5146C40.0108 30.5982 40.2672 30.6788 40.58 30.7334C41.402 30.8768 42.2971 30.8081 42.9862 30.54C43.3028 30.4168 43.8318 30.1134 44.5214 29.6396C45.183 29.1851 45.9011 28.638 46.5731 28.1025C47.2426 27.5691 47.8536 27.0581 48.2968 26.6797C48.4286 26.5671 48.5447 26.4655 48.6435 26.3799C47.8122 25.105 47.1932 23.7815 46.7978 22.6445C46.145 20.7677 45.7667 18.1244 46.1483 15.8555C46.3401 14.7161 46.7492 13.5196 47.5614 12.5811C48.424 11.5848 49.6411 11 51.1317 11C52.4967 11.0002 53.6902 11.4126 54.6103 12.251C55.5033 13.065 55.9936 14.1468 56.2431 15.2334C56.7318 17.3625 56.4019 19.958 55.7909 22.2383C55.3485 23.8892 54.35 25.4133 53.2421 26.7041C54.3228 27.6825 55.514 28.2518 56.7851 28.252C57.8253 28.2517 59.0682 27.8382 60.2919 27.0254C59.1938 25.4578 58.3196 23.703 57.9257 22.2402C57.3593 20.1364 57.2201 17.5591 57.7548 15.4199C58.0233 14.3462 58.4915 13.2623 59.2792 12.4238C60.1068 11.5433 61.2306 11 62.5849 11ZM76.9374 19.2061C74.4609 19.2061 72.4532 21.214 72.453 23.6904C72.4532 26.1669 74.4609 28.1748 76.9374 28.1748C79.4134 28.1742 81.4216 26.1665 81.4218 23.6904C81.4216 21.2143 79.4134 19.2067 76.9374 19.2061ZM41.4081 23.959C40.8148 23.9094 40.2182 24.0187 39.6806 24.2744L39.4833 24.376C39.0302 24.6294 38.6406 24.9848 38.3466 25.415C38.1096 25.762 37.9416 26.1492 37.8476 26.5557C37.8205 26.7992 37.8237 27.0755 37.8729 27.3857L42.3935 24.1943C42.1484 24.0949 41.8916 24.0249 41.6288 23.9854L41.4081 23.959ZM62.5849 14.3438C62.2001 14.3438 61.9445 14.4716 61.7167 14.7139C61.4491 14.9987 61.1835 15.4927 60.9989 16.2305C60.6277 17.7155 60.7069 19.7058 61.1552 21.3711C61.4033 22.2922 61.9844 23.5263 62.7655 24.7158C63.7744 23.4272 64.5374 21.8752 64.8563 20.1895C65.0846 18.9823 65.0417 17.336 64.5868 16.0732C64.3642 15.4556 64.0755 15.0213 63.7665 14.7529C63.4865 14.51 63.1262 14.344 62.5849 14.3438ZM51.1317 14.3438C50.5937 14.3438 50.3053 14.5208 50.0897 14.7695C49.824 15.0765 49.5807 15.6113 49.4462 16.4102C49.1755 18.0192 49.449 20.0883 49.956 21.5459C50.2206 22.3067 50.6132 23.1714 51.1151 24.0225C51.7998 23.1468 52.3268 22.2446 52.5604 21.373C53.1147 19.3044 53.2932 17.3315 52.9833 15.9814C52.8335 15.3293 52.5972 14.9425 52.3573 14.7236C52.1442 14.5294 51.7951 14.344 51.1317 14.3438Z" fill="#FFD449"/>
</svg>
