<svg width="242" height="238" viewBox="0 0 242 238" fill="none" xmlns="http://www.w3.org/2000/svg">
<rect y="24" width="213" height="214" rx="57.5" fill="#E0EBFF"/>
<path d="M89.8515 76.4333V91.2194H88.1014V83.7446H86.4658V90.467H84.7647V76.7114H86.4658V82.2561H88.1014V76.4333H89.8515ZM77.797 87.5392V78.1344H79.6289V85.9363C80.9047 85.9118 82.2949 85.7973 83.8488 85.4947L84.0287 87.0812C82.0332 87.4329 80.3404 87.5392 78.7783 87.5392H77.797ZM108.282 87.9808V89.502H94.7715V87.9808H100.578V85.0694H95.9328V83.6301H98.0101V79.2139H95.8837V77.7418H107.104V79.2139H104.945V83.6301H107.055V85.0694H102.377V87.9808H108.282ZM99.8256 83.6301H103.146V79.2139H99.8256V83.6301ZM121.144 76.4497V87.1303H119.312V76.4497H121.144ZM109.09 81.1112C109.09 78.9603 110.832 77.4229 113.081 77.4147C115.33 77.4229 117.063 78.9603 117.055 81.1112C117.063 83.2948 115.33 84.8241 113.081 84.8241C110.832 84.8241 109.09 83.2948 109.09 81.1112ZM110.873 81.1112C110.864 82.4197 111.813 83.2375 113.081 83.2375C114.316 83.2375 115.272 82.4197 115.272 81.1112C115.272 79.8354 114.316 79.0012 113.081 79.0012C111.813 79.0012 110.864 79.8354 110.873 81.1112ZM111.363 90.925V86.0508H113.195V89.4529H121.553V90.925H111.363ZM134.907 84.1862V85.6255H124.537V77.5946H134.776V79.0667H126.385V80.8495H134.432V82.2725H126.385V84.1862H134.907ZM122.885 89.4202V87.9318H136.395V89.4202H122.885Z" fill="black"/>
<path d="M47.2301 134.437V170.621H40.6831V140.784H40.4832L32.037 146.182V140.235L40.9829 134.437H47.2301ZM60.0444 167.072L55.8463 181.066H51.0984L53.6972 167.072H60.0444ZM77.6065 171.121C69.885 171.121 64.3624 166.923 64.2125 160.825H70.7596C70.9345 163.724 73.8332 165.648 77.6065 165.623C81.5797 165.648 84.4534 163.449 84.4534 160.226C84.4534 156.977 81.6547 154.653 76.9568 154.628H73.7082V149.63H76.9568C80.8051 149.63 83.4789 147.481 83.4539 144.333C83.4789 141.284 81.1799 139.235 77.6565 139.235C74.258 139.235 71.3343 141.134 71.2094 144.183H64.9622C65.1121 138.11 70.6346 133.937 77.7064 133.937C85.0531 133.937 89.801 138.435 89.751 143.983C89.801 148.031 87.1022 150.955 83.154 151.779V152.079C88.2517 152.754 91.1504 156.027 91.1004 160.575C91.1504 166.698 85.428 171.121 77.6065 171.121ZM108.862 171.121C100.141 171.121 94.9437 164.374 94.9687 152.529C94.9437 140.734 100.191 133.937 108.862 133.937C117.534 133.937 122.756 140.734 122.756 152.529C122.756 164.399 117.559 171.121 108.862 171.121ZM101.516 152.529C101.516 161.225 104.314 165.648 108.862 165.673C113.385 165.648 116.209 161.225 116.209 152.529C116.184 143.908 113.385 139.36 108.862 139.335C104.339 139.36 101.541 143.908 101.516 152.529ZM126.275 163.874V158.676L141.918 134.437H150.014V158.526H154.762V163.874H150.014V170.621H143.817V163.874H126.275ZM132.922 158.526H143.917V141.834H143.517L132.922 158.276V158.526Z" fill="black"/>
<path d="M169.702 161.458V149.239H171.746V150.695H171.877C172.196 150.065 172.85 149.125 174.429 149.125C176.473 149.125 178.084 150.728 178.092 153.688C178.084 156.608 176.522 158.276 174.429 158.284C172.899 158.276 172.204 157.368 171.877 156.714H171.795V161.458H169.702ZM171.746 153.672C171.754 155.406 172.507 156.567 173.856 156.567C175.238 156.567 175.966 155.348 175.966 153.672C175.966 152.02 175.255 150.834 173.856 150.826C172.49 150.834 171.754 151.946 171.746 153.672ZM183.742 149.239V150.842H181.992V155.455C181.992 156.305 182.417 156.477 182.94 156.485C183.186 156.493 183.595 156.469 183.856 156.453V158.154C183.611 158.194 183.21 158.244 182.679 158.235C181.109 158.244 179.898 157.467 179.915 155.798V150.842H178.639V149.239H179.915V147.113H181.992V149.239H183.742Z" fill="black"/>
<g filter="url(#filter0_d_388_6616)">
<path d="M237 42.3638C236 65.8638 210.5 64.3638 202 64.3638L217 19.3638L224 14.3638C233 20.3638 237.517 30.2092 237 42.3638Z" fill="url(#paint0_linear_388_6616)"/>
<rect x="131" y="19.3638" width="98" height="45" rx="20" fill="url(#paint1_linear_388_6616)"/>
<path d="M142.345 48.3638V35.6372H144.63V46.4302H150.255V48.3638H142.345ZM151.634 48.3638V35.6372H159.913V37.5532H153.919V41.0337H159.473V42.9497H153.919V46.4302H159.948V48.3638H151.634ZM163.348 35.6372L166.652 45.6743H166.793L170.115 35.6372H172.629L168.129 48.3638H165.316L160.834 35.6372H163.348ZM173.691 48.3638V35.6372H181.97V37.5532H175.976V41.0337H181.53V42.9497H175.976V46.4302H182.005V48.3638H173.691ZM183.717 48.3638V35.6372H186.002V46.4302H191.627V48.3638H183.717ZM204.86 35.6372H207.163V43.9517C207.154 46.6851 205.097 48.5571 201.995 48.5571C198.875 48.5571 196.836 46.6851 196.827 43.9517V35.6372H199.112V43.7583C199.121 45.3667 200.237 46.5093 201.995 46.5181C203.753 46.5093 204.86 45.3667 204.86 43.7583V35.6372ZM209.068 48.3638V35.6372H213.85C216.768 35.6372 218.323 37.4126 218.332 39.856C218.323 42.2905 216.75 44.0571 213.814 44.0571H211.354V48.3638H209.068ZM211.354 42.1763H213.498C215.221 42.1675 215.994 41.2007 215.994 39.856C215.994 38.4937 215.221 37.5532 213.498 37.5532H211.354V42.1763Z" fill="#6A5100"/>
<path d="M212.008 9.47747L231.787 12.9185L214.971 29.334L212.008 9.47747Z" fill="#FFC300"/>
</g>
<defs>
<filter id="filter0_d_388_6616" x="127" y="9.47748" width="114.04" height="62.9055" filterUnits="userSpaceOnUse" color-interpolation-filters="sRGB">
<feFlood flood-opacity="0" result="BackgroundImageFix"/>
<feColorMatrix in="SourceAlpha" type="matrix" values="0 0 0 0 0 0 0 0 0 0 0 0 0 0 0 0 0 0 127 0" result="hardAlpha"/>
<feOffset dy="4"/>
<feGaussianBlur stdDeviation="2"/>
<feComposite in2="hardAlpha" operator="out"/>
<feColorMatrix type="matrix" values="0 0 0 0 0 0 0 0 0 0 0 0 0 0 0 0 0 0 0.1 0"/>
<feBlend mode="normal" in2="BackgroundImageFix" result="effect1_dropShadow_388_6616"/>
<feBlend mode="normal" in="SourceGraphic" in2="effect1_dropShadow_388_6616" result="shape"/>
</filter>
<linearGradient id="paint0_linear_388_6616" x1="225.5" y1="21.3638" x2="241.5" y2="68.8638" gradientUnits="userSpaceOnUse">
<stop stop-color="#FFC300"/>
<stop offset="1" stop-color="white"/>
</linearGradient>
<linearGradient id="paint1_linear_388_6616" x1="222" y1="51.8638" x2="138.5" y2="11.8638" gradientUnits="userSpaceOnUse">
<stop stop-color="#FFDB67"/>
<stop offset="1" stop-color="#FFE8A2"/>
</linearGradient>
</defs>
</svg>
