<svg width="105" height="114" viewBox="0 0 105 114" fill="none" xmlns="http://www.w3.org/2000/svg">
<g filter="url(#filter0_d_388_6608)">
<path d="M26.7736 29.4931C23.0773 20.9991 28.4278 16.2915 31.9341 14.8388C39.0016 11.7632 43.5217 16.7947 45.4671 19.6721C47.8887 23.2515 51.2318 32.871 52.7647 37.29L52.8082 37.4139C53.2542 37.0863 53.7358 36.8101 54.2439 36.5906L65.5437 31.6732C70.1129 29.6848 75.4513 31.7859 77.4397 36.355C78.467 38.7157 78.6376 41.181 77.812 43.3344C81.4574 43.3539 84.8016 45.2673 86.2241 48.5359C87.528 51.5322 87.3152 54.7496 85.311 57.3566C88.3728 57.8043 91.0471 59.619 92.2784 62.4484C93.6893 65.6907 93.3251 69.2004 90.8265 71.9042C92.4168 72.5568 93.8016 73.9537 94.8646 76.3965C96.6235 80.4384 95.2155 84.9597 89.7647 87.3317L78.4649 92.2491C78.3321 92.3069 78.2 92.3609 78.0686 92.4111L68.8981 96.4018C38.5451 110.21 28.1375 91.1688 24.6324 83.1142C18.0606 68.0127 22.8374 60.5936 27.0823 54.0017C29.0908 50.8842 30.9808 47.9507 31.4962 44.4762C31.9276 41.5608 31.0928 39.4263 26.7719 29.4973" fill="url(#paint0_radial_388_6608)"/>
<path opacity="0.3" d="M54.4817 36.9886C51.5337 38.3795 43.5231 43.8267 46.5502 50.783C48.1435 54.4441 50.4132 55.9054 52.5576 56.3343C51.2302 57.7828 50.9485 61.1382 52.4143 64.5065C54.0458 68.2555 58.3519 69.6492 58.3519 69.6492C58.3519 69.6492 56.5567 74.0255 58.1295 77.6398C59.3175 80.3696 61.3894 81.8646 63.9014 82.4018C63.1195 83.4388 61.9291 86.3709 63.4267 89.8124C65.2124 93.9159 70.5398 95.6873 78.1776 92.7293C74.2279 93.6434 70.9919 91.0664 69.6089 87.8885C69.1526 86.84 68.811 84.9821 69.1388 83.0698L85.3915 75.9971C85.7799 75.8281 86.0852 75.5117 86.2403 75.1175C86.3955 74.7234 86.3877 74.2837 86.2186 73.8953C86.0496 73.5069 85.7332 73.2016 85.3391 73.0464C84.9449 72.8913 84.5053 72.8991 84.1169 73.0681L68.2684 79.9649C66.4067 78.9288 64.9439 77.1686 64.0938 75.215C63.5636 73.9966 63.1669 71.8282 63.5593 69.6161L79.5806 62.6441C79.969 62.475 80.2744 62.1587 80.4295 61.7645C80.5846 61.3703 80.5768 60.9307 80.4078 60.5423C80.2388 60.1539 79.9224 59.8486 79.5282 59.6934C79.1341 59.5383 78.6944 59.5461 78.306 59.7151L62.9291 66.4067C60.7256 65.4497 58.9967 63.5022 58.0395 61.3026C57.5845 60.257 57.2258 58.504 57.3844 56.627L73.845 49.4639C74.2334 49.2948 74.5387 48.9784 74.6938 48.5843C74.849 48.1901 74.8412 47.7505 74.6721 47.3621C74.5031 46.9737 74.1867 46.6683 73.7926 46.5132C73.3984 46.3581 72.9588 46.3659 72.5704 46.5349L57.419 53.1284C55.0062 52.0987 53.0584 49.8563 52.1841 47.8471C51.1516 45.4746 50.1676 39.6672 54.5072 37.0472L54.4817 36.9886Z" fill="#C19C25"/>
</g>
<defs>
<filter id="filter0_d_388_6608" x="12.6746" y="8.64594" width="91.6228" height="104.843" filterUnits="userSpaceOnUse" color-interpolation-filters="sRGB">
<feFlood flood-opacity="0" result="BackgroundImageFix"/>
<feColorMatrix in="SourceAlpha" type="matrix" values="0 0 0 0 0 0 0 0 0 0 0 0 0 0 0 0 0 0 127 0" result="hardAlpha"/>
<feOffset dy="3.48718"/>
<feGaussianBlur stdDeviation="4.35897"/>
<feComposite in2="hardAlpha" operator="out"/>
<feColorMatrix type="matrix" values="0 0 0 0 0 0 0 0 0 0 0 0 0 0 0 0 0 0 0.1 0"/>
<feBlend mode="normal" in2="BackgroundImageFix" result="effect1_dropShadow_388_6608"/>
<feBlend mode="normal" in="SourceGraphic" in2="effect1_dropShadow_388_6608" result="shape"/>
</filter>
<radialGradient id="paint0_radial_388_6608" cx="0" cy="0" r="1" gradientUnits="userSpaceOnUse" gradientTransform="translate(-1.87088 -1.80429) rotate(41.7954) scale(140.055 236.141)">
<stop stop-color="#FFE100"/>
<stop offset="0.535" stop-color="#FFD449"/>
<stop offset="1" stop-color="#FFD343"/>
</radialGradient>
</defs>
</svg>
