<svg width="476" height="417" viewBox="0 0 476 417" fill="none" xmlns="http://www.w3.org/2000/svg">
<g filter="url(#filter0_dd_388_6536)">
<path d="M20 46C20 29.4315 33.4315 16 50 16H426C442.569 16 456 29.4315 456 46V363C456 379.569 442.569 393 426 393H20V46Z" fill="white" shape-rendering="crispEdges"/>
<path d="M50 16.5H426C442.292 16.5 455.5 29.7076 455.5 46V363C455.5 379.292 442.292 392.5 426 392.5H20.5V46C20.5 29.7076 33.7076 16.5 50 16.5Z" stroke="#FFE8A2" stroke-opacity="0.1" shape-rendering="crispEdges"/>
<path d="M53.1914 80.9844V66.3945H55.6328V68.1328H55.7891C56.1699 67.3809 56.9512 66.2578 58.8359 66.2578C61.2773 66.2578 63.2012 68.1719 63.2109 71.707C63.2012 75.1934 61.3359 77.1855 58.8359 77.1953C57.0098 77.1855 56.1797 76.1016 55.7891 75.3203H55.6914V80.9844H53.1914ZM55.6328 71.6875C55.6426 73.7578 56.541 75.1445 58.1523 75.1445C59.8027 75.1445 60.6719 73.6895 60.6719 71.6875C60.6719 69.7148 59.8223 68.2988 58.1523 68.2891C56.5215 68.2988 55.6426 69.627 55.6328 71.6875ZM64.6641 77V66.3945H67.0859V68.1523H67.2031C67.584 66.9316 68.5996 66.2383 69.8203 66.2383C70.0938 66.2383 70.4844 66.2676 70.7188 66.2969V68.6016C70.4941 68.5234 69.9766 68.4551 69.5664 68.4453C68.1797 68.4551 67.1641 69.4121 67.1641 70.75V77H64.6641ZM71.7031 77V66.3945H74.2031V77H71.7031ZM71.5273 63.5234C71.5273 62.7812 72.1816 62.1758 72.9727 62.1758C73.7637 62.1758 74.418 62.7812 74.418 63.5234C74.418 64.2754 73.7637 64.8809 72.9727 64.8906C72.1816 64.8809 71.5273 64.2754 71.5273 63.5234ZM78.5859 70.7891V77H76.0859V66.3945H78.4688V68.1914H78.6055C79.084 67.0098 80.168 66.2578 81.75 66.2578C83.9473 66.2578 85.3926 67.7031 85.3828 70.2422V77H82.9023V70.6328C82.9023 69.207 82.1309 68.3574 80.832 68.3672C79.5137 68.3574 78.5859 69.2461 78.5859 70.7891ZM92.5586 66.3945V68.3086H90.4688V73.8164C90.4688 74.832 90.9766 75.0371 91.6016 75.0469C91.8945 75.0566 92.3828 75.0273 92.6953 75.0078V77.0391C92.4023 77.0879 91.9238 77.1465 91.2891 77.1367C89.4141 77.1465 87.9688 76.2188 87.9883 74.2266V68.3086H86.4648V66.3945H87.9883V63.8555H90.4688V66.3945H92.5586ZM111.539 61.082V65.5547H114V67.3711H111.539V71.7266H109.371V61.082H111.539ZM97.6328 64.5195V62.7812H101.793V60.9648H103.961V62.7812H108.102V64.5195H97.6328ZM98.5312 68.3281C98.5312 66.4434 100.289 65.1641 102.867 65.1641C105.426 65.1641 107.174 66.4434 107.184 68.3281C107.174 70.2324 105.416 71.4922 102.867 71.4922C100.289 71.4922 98.5312 70.2324 98.5312 68.3281ZM100.133 78.5234V72.5664H111.539V78.5234H100.133ZM100.641 68.3281C100.631 69.3145 101.529 69.8711 102.867 69.8711C104.205 69.8711 105.113 69.3145 105.113 68.3281C105.113 67.3711 104.205 66.8047 102.867 66.8047C101.529 66.8047 100.631 67.3711 100.641 68.3281ZM102.281 76.7656H109.391V74.2852H102.281V76.7656ZM123.598 62.5469C123.588 64.7637 126.078 67.0195 129.848 67.5078L128.988 69.2656C125.99 68.8164 123.607 67.3418 122.455 65.3496C121.303 67.3418 118.93 68.8164 115.961 69.2656L115.102 67.5078C118.832 67.0195 121.312 64.7832 121.312 62.5469V61.6484H123.598V62.5469ZM114.398 72.5859V70.7891H130.492V72.5859H123.48V78.7383H121.332V72.5859H114.398ZM146.418 61.082V78.7383H144.328V61.082H146.418ZM131.359 68.7188C131.359 64.832 132.863 62.4199 135.168 62.4297C137.307 62.4199 138.762 64.4219 139.016 67.7227H140.715V61.3945H142.785V77.8789H140.715V69.4805H139.035C138.83 72.9277 137.355 75.0371 135.168 75.0273C132.863 75.0371 131.359 72.6152 131.359 68.7188ZM133.371 68.7188C133.361 71.4824 134.045 72.9668 135.168 72.957C136.34 72.9668 137.033 71.4824 137.043 68.7188C137.033 65.9648 136.34 64.4707 135.168 64.4805C134.045 64.4707 133.361 65.9648 133.371 68.7188ZM154.492 65.3203C154.482 68.6016 156.055 71.8242 158.867 73.0547L157.559 74.793C155.566 73.8164 154.16 71.9414 153.408 69.627C152.637 72.0684 151.191 74.0996 149.16 75.125L147.793 73.3672C150.674 72.0195 152.275 68.6211 152.285 65.3203V62.5078H154.492V65.3203ZM156.914 68.543V66.7852H160.625V61.082H162.773V78.7578H160.625V68.543H156.914ZM183.16 61.043V67.8008H185.445V69.6172H183.16V78.7383H180.992V61.043H183.16ZM169.41 74.3047V62.8789H173.961V64.6367H171.578V72.4883C172.369 72.459 173.18 72.3809 174.098 72.1953L174.273 73.9727C172.75 74.2754 171.549 74.2949 170.27 74.3047H169.41ZM174.918 74.3047V62.8789H179.664V64.6367H177.047V72.498C178.238 72.4785 179.088 72.3906 180.016 72.1562L180.191 73.9336C178.883 74.2656 177.809 74.2949 175.816 74.3047H174.918ZM193.812 61.375C197.719 61.375 200.17 62.6445 200.18 64.7539C200.17 66.668 198.158 67.8984 194.867 68.1035V69.5H201.879V71.2578H185.785V69.5H192.738V68.1035C189.486 67.8887 187.445 66.6582 187.445 64.7539C187.445 62.6445 189.945 61.375 193.812 61.375ZM187.68 78.5234V72.5859H199.926V78.5234H187.68ZM189.711 64.7539C189.691 65.8867 191.234 66.4727 193.812 66.4727C196.391 66.4727 197.934 65.8867 197.934 64.7539C197.934 63.6602 196.391 63.0449 193.812 63.0547C191.234 63.0449 189.691 63.6602 189.711 64.7539ZM189.828 76.7656H197.816V74.3047H189.828V76.7656ZM218.703 74.9492V76.707H202.57V74.9492H206.75V71.3164H203.957V69.5586H206.438V64.3242H203.898V62.5859H217.297V64.3242H214.719V69.5586H217.238V71.3164H214.445V74.9492H218.703ZM208.605 69.5586H212.57V64.3242H208.605V69.5586ZM208.918 74.9492H212.277V71.3164H208.918V74.9492ZM233.652 66.082V67.8008H221.426V61.7266H223.574V66.082H233.652ZM219.336 71.5703V69.8516H235.469V71.5703H219.336ZM221.27 78.3281V73.1328H223.438V76.5703H233.77V78.3281H221.27ZM254.801 61.8242V62.8203C254.801 63.9922 254.801 65.7305 254.273 68.0156L252.145 67.7617C252.574 65.9648 252.662 64.6172 252.682 63.5625H248.59V61.8242H254.801ZM240.426 70.9844V69.2266H247.691V65.9844H249.82V69.2266H256.441V70.9844H240.426ZM241.734 63.5625V61.8242H247.203V62.5273C247.193 63.6406 247.193 65.5254 246.305 68.0352L244.234 67.7422C244.83 65.916 245.006 64.5586 245.055 63.5625H241.734ZM242.145 74.3047V72.5469H254.469V78.6211H252.262V74.3047H242.145ZM276.535 61.082V78.7383H274.328V69.0703H271.75V67.1953H274.328V61.082H276.535ZM261.027 73.2891C263.264 71.5508 263.693 68.5039 263.703 65.9258V62.5469H265.734V65.9258C265.725 67.8691 265.959 70.2617 267.16 72.0781C268.332 70.291 268.547 67.8984 268.547 65.9258V62.5469H270.637V65.9258C270.617 68.543 271.027 71.5898 273.293 73.2891L271.926 74.832C270.715 73.9238 269.992 72.5273 269.572 70.9355C269.152 72.5762 268.42 74.041 267.16 74.9688C265.891 74.0508 265.158 72.5957 264.729 70.9746C264.318 72.5176 263.625 73.8652 262.492 74.7539L261.027 73.2891ZM282.949 62.3711C285.605 62.3711 287.52 64.793 287.539 68.6016C287.52 72.4395 285.605 74.8516 282.949 74.8516C280.264 74.8516 278.35 72.4395 278.359 68.6016C278.35 64.793 280.264 62.3711 282.949 62.3711ZM280.449 68.6016C280.439 71.3164 281.465 72.8887 282.949 72.8984C284.443 72.8887 285.439 71.3164 285.449 68.6016C285.439 65.9062 284.443 64.3242 282.949 64.3242C281.465 64.3242 280.439 65.9062 280.449 68.6016ZM289.863 78.7383V61.082H292.031V65.3008H294.648V67.1172H292.031V70.5156H294.648V72.293H292.031V78.7383H289.863ZM313.062 61.082V68.1133H315.777V69.9102H313.062V78.7383H310.914V61.082H313.062ZM299.137 65.5352V63.7969H303.316V61.3359H305.484V63.7969H309.547V65.5352H299.137ZM299.957 70.8477C299.938 68.4062 301.832 66.6777 304.41 66.6875C306.949 66.6777 308.834 68.4062 308.844 70.8477C308.834 73.2793 306.949 74.9883 304.41 74.9883C301.832 74.9883 299.938 73.2793 299.957 70.8477ZM302.027 70.8477C302.018 72.2832 303.023 73.2012 304.41 73.1914C305.768 73.2012 306.754 72.2832 306.773 70.8477C306.754 69.4121 305.768 68.4648 304.41 68.4648C303.023 68.4648 302.018 69.4121 302.027 70.8477ZM332.465 67.8984V69.6758H329.848V78.6992H327.68V61.082H329.848V67.8984H332.465ZM316.645 74.3438V62.8008H318.793V72.5469C321.146 72.5078 323.646 72.3027 326.312 71.7461L326.547 73.582C323.568 74.1777 320.746 74.334 318.129 74.3438H316.645ZM348.938 74.8125V76.5898H332.805V74.8125H336.535V70.3496C335.129 69.5391 334.279 68.2695 334.289 66.707C334.279 63.8945 337.033 62.0391 340.832 62.0391C344.65 62.0391 347.424 63.8945 347.414 66.707C347.424 68.25 346.594 69.4902 345.227 70.3008V74.8125H348.938ZM336.418 66.707C336.408 68.5137 338.195 69.666 340.832 69.6562C343.459 69.666 345.285 68.5137 345.285 66.707C345.285 64.8711 343.459 63.748 340.832 63.7578C338.195 63.748 336.408 64.8711 336.418 66.707ZM338.684 74.8125H343.02V71.1309C342.346 71.2773 341.613 71.3555 340.832 71.3555C340.07 71.3555 339.348 71.2773 338.684 71.1406V74.8125ZM352.578 72.6641C352.598 70.1738 353.301 69.4121 354.531 68.6602C355.361 68.123 356.006 67.4688 355.996 66.4922C356.006 65.3984 355.146 64.6953 354.082 64.6953C353.115 64.6953 352.178 65.3203 352.109 66.6289H349.668C349.736 64.002 351.689 62.6641 354.102 62.6641C356.738 62.6641 358.545 64.1289 358.555 66.4531C358.545 68.0449 357.754 69.0801 356.484 69.832C355.352 70.5254 354.883 71.1992 354.863 72.6641V72.8398H352.578V72.6641ZM352.266 75.6328C352.256 74.8125 352.949 74.1387 353.789 74.1289C354.6 74.1387 355.293 74.8125 355.293 75.6328C355.293 76.4727 354.6 77.1562 353.789 77.1562C352.949 77.1562 352.256 76.4727 352.266 75.6328Z" fill="#333333"/>
<g filter="url(#filter1_d_388_6536)">
<path d="M75.3974 96.9252C76.3891 96.3527 77.6109 96.3527 78.6026 96.9252L97.0481 107.575C98.0397 108.147 98.6506 109.205 98.6506 110.35V131.65C98.6506 132.795 98.0397 133.853 97.0481 134.425L78.6026 145.075C77.6109 145.647 76.3891 145.647 75.3974 145.075L56.9519 134.425C55.9603 133.853 55.3494 132.795 55.3494 131.65V110.35C55.3494 109.205 55.9603 108.147 56.9519 107.575L75.3974 96.9252Z" fill="white"/>
</g>
<path d="M75.4772 99.6286C76.4192 99.0847 77.58 99.0847 78.5221 99.6286L94.7477 108.996C95.6896 109.54 96.2701 110.545 96.2701 111.632V130.368C96.27 131.455 95.6896 132.461 94.7477 133.005L78.5221 142.372C77.58 142.916 76.4192 142.916 75.4772 142.372L59.2526 133.005C58.3106 132.461 57.7302 131.456 57.7301 130.368V111.632C57.7301 110.545 58.3106 109.54 59.2526 108.996L75.4772 99.6286Z" fill="url(#paint0_linear_388_6536)" stroke="url(#paint1_linear_388_6536)" stroke-width="0.320513"/>
<path d="M75.4777 101.872C76.4197 101.328 77.5805 101.328 78.5226 101.872L92.8048 110.117C93.7467 110.661 94.3271 111.666 94.3273 112.754V129.245C94.3273 130.333 93.7468 131.339 92.8048 131.883L78.5226 140.128C77.5805 140.672 76.4197 140.672 75.4777 140.128L61.1954 131.883C60.2534 131.339 59.673 130.333 59.673 129.245V112.754C59.6731 111.666 60.2535 110.661 61.1954 110.117L75.4777 101.872Z" stroke="white" stroke-width="0.320513"/>
<g filter="url(#filter2_i_388_6536)">
<path d="M75.3974 104.938C76.3891 104.366 77.6109 104.366 78.6026 104.938L90.1088 111.581C91.1004 112.154 91.7113 113.212 91.7113 114.357V127.643C91.7113 128.788 91.1004 129.846 90.1088 130.419L78.6026 137.062C77.6109 137.634 76.3891 137.634 75.3974 137.062L63.8912 130.419C62.8996 129.846 62.2887 128.788 62.2887 127.643V114.357C62.2887 113.212 62.8996 112.154 63.8912 111.581L75.3974 104.938Z" fill="#FFDA91"/>
</g>
<g filter="url(#filter3_d_388_6536)">
<path d="M69.3431 124.91V117.657H70.6428V123.812H73.8444V124.91H69.3431ZM75.1034 117.657L76.9946 123.377H77.069L78.9602 117.657H80.391L77.834 124.91H76.2261L73.6691 117.657H75.1034ZM83.8617 125.048C83.2808 125.048 82.7815 124.901 82.3636 124.606C81.9457 124.308 81.6257 123.878 81.4038 123.317C81.1819 122.752 81.0721 122.077 81.0744 121.291C81.0744 120.507 81.1854 119.835 81.4073 119.276C81.6316 118.716 81.9516 118.29 82.3671 117.997C82.785 117.704 83.2832 117.558 83.8617 117.558C84.4378 117.558 84.9348 117.705 85.3527 118.001C85.7706 118.293 86.0905 118.72 86.3124 119.279C86.5367 119.836 86.6489 120.507 86.6489 121.291C86.6489 122.079 86.5379 122.756 86.316 123.32C86.094 123.882 85.7741 124.311 85.3562 124.606C84.9383 124.901 84.4401 125.048 83.8617 125.048ZM83.8617 123.943C84.1662 123.943 84.4283 123.843 84.6479 123.642C84.8675 123.439 85.0363 123.141 85.1543 122.746C85.2724 122.35 85.3314 121.864 85.3314 121.291C85.3314 120.719 85.2712 120.237 85.1508 119.842C85.0327 119.448 84.8639 119.15 84.6443 118.95C84.4248 118.747 84.1639 118.645 83.8617 118.645C83.5571 118.645 83.295 118.747 83.0754 118.95C82.8582 119.15 82.6894 119.448 82.569 119.842C82.4509 120.237 82.3907 120.719 82.3884 121.291C82.3884 121.862 82.4474 122.346 82.5654 122.743C82.6835 123.139 82.8523 123.439 83.0719 123.642C83.2915 123.843 83.5547 123.943 83.8617 123.943Z" fill="url(#paint2_linear_388_6536)"/>
</g>
<path d="M121.656 100.281V104H123.562V105.438H121.656V109.188H119.922V100.281H121.656ZM110.438 107.125C111.461 107.125 112.648 107.117 113.891 107.086V106C112.266 105.75 111.195 104.758 111.203 103.391C111.195 101.805 112.641 100.727 114.734 100.719C116.805 100.727 118.266 101.805 118.281 103.391C118.266 104.742 117.219 105.719 115.641 105.992V107.016C116.82 106.953 118 106.852 119.094 106.703L119.25 107.922C116.305 108.43 113.039 108.477 110.625 108.484L110.438 107.125ZM112.219 111.875C112.211 110.273 114.023 109.352 116.984 109.359C119.922 109.352 121.727 110.273 121.734 111.875C121.727 113.43 119.922 114.375 116.984 114.375C114.023 114.375 112.211 113.43 112.219 111.875ZM112.828 103.391C112.812 104.258 113.578 104.789 114.734 104.797C115.867 104.789 116.633 104.258 116.641 103.391C116.633 102.531 115.867 102.031 114.734 102.031C113.578 102.031 112.812 102.531 112.828 103.391ZM113.922 111.875C113.914 112.625 115.023 113.031 116.984 113.031C118.891 113.031 120 112.625 120.016 111.875C120 111.086 118.891 110.68 116.984 110.672C115.023 110.68 113.914 111.086 113.922 111.875ZM136.803 111.297V112.719H123.897V111.297H129.475V108.375H131.194V111.297H136.803ZM124.428 107.5C127.491 107.102 129.327 105.477 129.452 103.719H125.038V102.312H129.475V100.484H131.194V102.312H135.647V103.719H131.233C131.35 105.477 133.186 107.102 136.241 107.5L135.6 108.859C133.163 108.516 131.272 107.43 130.334 105.891C129.405 107.43 127.53 108.516 125.084 108.859L124.428 107.5ZM150.231 111.266V112.688H137.325V111.266H142.888V108.516H138.747V101.203H140.481V103.516H147.028V101.203H148.763V108.516H144.606V111.266H150.231ZM140.481 107.109H147.028V104.906H140.481V107.109Z" fill="#333333"/>
<rect x="110" y="122" width="29" height="24" rx="4" fill="#747474"/>
<path d="M123.083 128.994V134.398H121.985V128.994H123.083ZM114.423 133.457C116.059 132.914 117.066 131.539 117.066 130.08V129.272H118.206V130.08C118.198 131.489 119.209 132.773 120.825 133.275L120.273 134.141C119.047 133.743 118.127 132.914 117.646 131.849C117.174 133.001 116.242 133.909 114.99 134.336L114.423 133.457ZM116.192 135.778V134.899H123.099V137.526H117.307V138.5H123.443V139.395H116.225V136.681H121.993V135.778H116.192ZM133.216 128.994V139.515H132.114V133.747H129.785V136.913H124.871V129.811H125.99V132.483H128.7V129.811H129.785V132.831H132.114V128.994H133.216ZM125.99 136.006H128.7V133.366H125.99V136.006Z" fill="white"/>
<path opacity="0.5" d="M146.97 130.014V138.5H145.677V131.307H145.627L143.601 132.628V131.398L145.71 130.014H146.97ZM151.444 129.355C153.022 129.359 154.187 130.329 154.195 131.709C154.187 133.084 153.022 134.046 151.444 134.046C149.844 134.046 148.68 133.084 148.68 131.709C148.68 130.329 149.844 129.359 151.444 129.355ZM149.765 131.709C149.757 132.57 150.474 133.142 151.444 133.142C152.405 133.142 153.118 132.57 153.118 131.709C153.118 130.851 152.405 130.275 151.444 130.279C150.474 130.275 149.757 130.851 149.765 131.709ZM150.271 135.707V134.825H157.178V137.464H151.386V138.471H157.522V139.362H150.304V136.635H156.072V135.707H150.271ZM156.064 134.34V128.994H157.178V134.34H156.064ZM167.291 129.003V136.693H166.18V132.753H164.167V131.845H166.18V129.003H167.291ZM158.544 134.501C160.16 133.959 161.167 132.575 161.167 131.128V130.714H158.888V129.807H164.556V130.714H162.294V131.128C162.294 132.438 163.243 133.751 164.825 134.282L164.258 135.169C163.073 134.758 162.207 133.913 161.751 132.877C161.287 134.033 160.371 134.961 159.12 135.409L158.544 134.501ZM160.475 139.279V136.01H161.585V138.367H167.569V139.279H160.475Z" fill="#333333"/>
<path d="M53.1492 185V173.685H54.8674V178.597H60.4972V173.685H62.221V185H60.4972V180.072H54.8674V185H53.1492ZM67.6546 185.171C65.1518 185.171 63.6104 183.448 63.6104 180.812C63.6104 178.204 65.1739 176.403 67.533 176.403C69.4667 176.403 71.3065 177.602 71.3065 180.669V181.26H65.2678C65.312 182.878 66.2623 183.801 67.6656 183.801C68.6104 183.801 69.2236 183.392 69.5054 182.867H71.196C70.8203 184.254 69.5164 185.171 67.6546 185.171ZM65.2733 180.011H69.6656C69.6601 178.724 68.8258 177.773 67.5551 177.773C66.2181 177.773 65.3507 178.818 65.2733 180.011ZM74.2288 173.685V185H72.5603V173.685H74.2288ZM77.532 173.685V185H75.8634V173.685H77.532ZM82.7522 185.171C80.3544 185.171 78.7854 183.42 78.7854 180.796C78.7854 178.155 80.3544 176.403 82.7522 176.403C85.1445 176.403 86.708 178.155 86.708 180.796C86.708 183.42 85.1445 185.171 82.7522 185.171ZM80.4649 180.79C80.4649 182.414 81.2052 183.779 82.7577 183.779C84.2936 183.779 85.0285 182.414 85.0285 180.79C85.0285 179.171 84.2936 177.79 82.7577 177.79C81.2052 177.79 80.4649 179.171 80.4649 180.79ZM89.9706 183.906L88.7165 188.227H87.3905L88.2248 183.906H89.9706ZM97.5242 185L94.3861 173.685H96.1983L98.3972 182.431H98.5021L100.789 173.685H102.579L104.867 182.436H104.966L107.165 173.685H108.977L105.839 185H104.104L101.729 176.547H101.64L99.2646 185H97.5242ZM112.59 185.171C110.192 185.171 108.623 183.42 108.623 180.796C108.623 178.155 110.192 176.403 112.59 176.403C114.982 176.403 116.546 178.155 116.546 180.796C116.546 183.42 114.982 185.171 112.59 185.171ZM110.302 180.79C110.302 182.414 111.043 183.779 112.595 183.779C114.131 183.779 114.866 182.414 114.866 180.79C114.866 179.171 114.131 177.79 112.595 177.79C111.043 177.79 110.302 179.171 110.302 180.79ZM117.792 185V176.514H119.405V177.867H119.493C119.803 176.95 120.653 176.387 121.642 176.387C121.852 176.387 122.184 176.403 122.355 176.425V178.017C122.217 177.983 121.825 177.917 121.488 177.917C120.322 177.917 119.46 178.718 119.46 179.829V185H117.792ZM124.873 173.685V185H123.204V173.685H124.873ZM129.684 185.166C127.629 185.166 126.132 183.519 126.132 180.773C126.132 178.017 127.651 176.403 129.701 176.403C131.275 176.403 131.844 177.359 132.143 177.89H132.231V173.685H133.899V185H132.27V183.68H132.143C131.833 184.227 131.231 185.166 129.684 185.166ZM127.828 180.757C127.828 182.459 128.59 183.746 130.06 183.746C131.474 183.746 132.27 182.53 132.27 180.757C132.27 178.989 131.491 177.823 130.06 177.823C128.573 177.823 127.828 179.077 127.828 180.757ZM137.753 173.685L137.609 181.74H136.067L135.924 173.685H137.753ZM135.736 184C135.725 183.392 136.233 182.895 136.846 182.895C137.443 182.895 137.951 183.392 137.951 184C137.951 184.608 137.443 185.105 136.846 185.105C136.233 185.105 135.725 184.608 135.736 184ZM155.4 178.47V179.58H149.759V180.751H153.797V183.912H145.654V185.066H154.201V186.193H144.201V182.884H152.339V181.834H144.173V180.751H148.289V179.58H142.67V178.47H155.4ZM143.289 176.801C145.974 176.652 147.864 175.829 148.162 174.641H143.935V173.508H148.295V172.271H149.753V173.508H154.134V174.641H149.88C150.173 175.829 152.063 176.652 154.77 176.801L154.322 177.917C151.886 177.74 149.897 177.033 149.024 175.807C148.151 177.033 146.162 177.74 143.714 177.917L143.289 176.801ZM162.745 173.171V177.249H158.132V179.193C160.568 179.188 161.894 179.133 163.463 178.84L163.607 180.05C161.9 180.337 160.463 180.381 157.673 180.387H156.662V176.122H161.27V174.354H156.634V173.171H162.745ZM158.242 182.856V181.657H167.75V186.343H166.27V182.856H158.242ZM163.634 178.492V177.293H166.27V175.564H163.634V174.376H166.27V172.337H167.75V180.945H166.27V178.492H163.634ZM180.416 172.326V178H182.659V179.232H180.416V186.326H178.946V172.326H180.416ZM169.433 175.729V174.519H172.886V172.508H174.366V174.519H177.725V175.729H169.433ZM170.151 180.022C170.145 178.11 171.615 176.762 173.637 176.762C175.637 176.762 177.107 178.11 177.112 180.022C177.107 181.939 175.637 183.271 173.637 183.276C171.615 183.271 170.145 181.939 170.151 180.022ZM171.571 180.022C171.56 181.232 172.438 182.044 173.637 182.039C174.819 182.044 175.687 181.232 175.698 180.022C175.687 178.818 174.819 177.989 173.637 177.989C172.438 177.989 171.56 178.818 171.571 180.022ZM194.27 176.425V177.613H184.623V172.834H186.093V176.425H194.27ZM182.916 180.564V179.376H195.728V180.564H182.916ZM184.518 185.994V181.895H185.993V184.785H194.358V185.994H184.518ZM212.663 179.403V180.613H207.11V183.326H205.64V180.613H199.85V179.403H212.663ZM201.447 186.039V182H202.928V184.823H211.243V186.039H201.447ZM201.497 177.956V172.983H211.005V177.956H201.497ZM202.95 176.785H209.541V174.155H202.95V176.785ZM225.306 172.326V186.326H223.897V172.326H225.306ZM213.091 182.475C215.074 181.271 216.085 178.724 216.085 176.232V175.11H213.522V173.901H219.93V175.11H217.516V176.232C217.516 178.63 218.483 181.022 220.45 182.155L219.566 183.249C218.223 182.448 217.306 181.022 216.82 179.331C216.323 181.16 215.372 182.724 214.008 183.575L213.091 182.475ZM218.886 178.492V177.287H221.069V172.624H222.466V185.619H221.069V178.492H218.886ZM239.519 178.751V179.89H226.707V178.751H239.519ZM228.226 181.939V180.867H237.944V183.956H229.723V185.11H238.381V186.16H228.243V182.967H236.475V181.939H228.226ZM228.314 173.735V172.691H237.906V175.718H229.823V176.785H238.149V177.829H228.353V174.74H236.425V173.735H228.314ZM255.227 172.691V173.818H253.188V176.182H255.166V177.331H244.89V176.182H246.873V173.818H244.829V172.691H255.227ZM243.663 179.525V178.343H256.426V179.525H250.768V180.74H254.807V183.934H246.663V185.066H255.21V186.193H245.21V182.884H253.348V181.834H245.182V180.74H249.282V179.525H243.663ZM248.348 176.182H251.702V173.818H248.348V176.182ZM268.417 173.674V175.044C268.412 176.779 268.412 178.713 267.881 181.586L266.39 181.42C266.925 178.713 266.925 176.729 266.937 175.044V174.878H258.434V173.674H268.417ZM257.091 184.436V183.21H261.942V178.271H263.412V183.21H269.854V184.436H257.091ZM278.876 181.575C278.876 182.779 279.479 184.05 280.744 184.812C282.026 183.983 282.661 182.646 282.661 181.575V180.906H284.12V181.575C284.108 183.033 285.07 184.436 286.893 185.039L286.158 186.122C284.777 185.646 283.838 184.713 283.352 183.564C282.91 184.685 282.07 185.718 280.788 186.249C279.44 185.746 278.589 184.757 278.158 183.608C277.655 184.713 276.727 185.641 275.407 186.122L274.666 185.039C276.462 184.387 277.434 182.934 277.445 181.575V180.906H278.876V181.575ZM274.307 176.42C274.307 174.464 275.887 173.116 278.037 173.116C280.18 173.116 281.755 174.464 281.755 176.42C281.755 178.359 280.18 179.707 278.037 179.707C275.887 179.707 274.307 178.359 274.307 176.42ZM275.76 176.42C275.749 177.641 276.705 178.47 278.037 178.475C279.352 178.47 280.302 177.641 280.302 176.42C280.302 175.193 279.352 174.365 278.037 174.376C276.705 174.365 275.749 175.193 275.76 176.42ZM284.153 180.304V172.337H285.639V180.304H284.153ZM292.426 181.558C292.415 182.779 293.017 184.05 294.288 184.829C295.57 183.983 296.177 182.63 296.189 181.558V180.807H297.642V181.558C297.642 183.011 298.592 184.442 300.448 185.039L299.68 186.144C298.305 185.652 297.371 184.713 296.89 183.564C296.443 184.685 295.597 185.724 294.305 186.26C292.979 185.757 292.133 184.762 291.697 183.613C291.194 184.713 290.266 185.646 288.951 186.144L288.222 185.039C290.017 184.409 290.984 182.928 290.99 181.558V180.807H292.426V181.558ZM287.664 176.398C287.664 174.47 289.216 173.088 291.321 173.099C293.139 173.088 294.581 174.171 294.896 175.757H297.642V172.326H299.122V180.271H297.642V176.972H294.912C294.625 178.602 293.166 179.707 291.321 179.707C289.216 179.707 287.664 178.337 287.664 176.398ZM289.089 176.398C289.078 177.613 290.028 178.47 291.321 178.475C292.592 178.47 293.537 177.613 293.542 176.398C293.537 175.171 292.592 174.337 291.321 174.343C290.028 174.337 289.078 175.171 289.089 176.398ZM312.213 176.425V177.613H302.567V172.834H304.037V176.425H312.213ZM300.86 180.564V179.376H313.672V180.564H300.86ZM302.462 185.994V181.895H303.937V184.785H312.302V185.994H302.462ZM326.343 172.326V186.326H324.907V172.326H326.343ZM314.813 183.039V174.006H320.117V175.215H316.26V181.796C318.089 181.785 319.321 181.707 320.769 181.398L320.901 182.635C319.299 182.961 317.912 183.028 315.73 183.039H314.813ZM319.166 178.823V177.591H322.045V172.63H323.443V185.624H322.045V178.823H319.166ZM340.55 183.354V184.58H327.738V183.354H330.804V179.691C329.65 179.061 328.948 178.055 328.948 176.801C328.948 174.597 331.108 173.149 334.108 173.138C337.119 173.149 339.285 174.597 339.285 176.801C339.285 178.039 338.605 179.028 337.478 179.663V183.354H340.55ZM330.39 176.801C330.39 178.298 331.915 179.276 334.108 179.276C336.291 179.276 337.838 178.298 337.838 176.801C337.838 175.287 336.291 174.326 334.108 174.337C331.915 174.326 330.39 175.287 330.39 176.801ZM332.263 183.354H335.981V180.232C335.407 180.365 334.777 180.436 334.108 180.436C333.445 180.436 332.826 180.365 332.263 180.238V183.354ZM343.68 183.906L342.426 188.227H341.1L341.934 183.906H343.68ZM53.0166 214.182V202.514H54.6464V203.89H54.7845C55.0773 203.359 55.6519 202.403 57.221 202.403C59.2707 202.403 60.779 204.017 60.779 206.773C60.779 209.519 59.2928 211.166 57.2376 211.166C55.6961 211.166 55.0829 210.227 54.7845 209.68H54.6851V214.182H53.0166ZM54.6519 206.757C54.6519 208.53 55.442 209.746 56.8619 209.746C58.3315 209.746 59.0939 208.459 59.0939 206.757C59.0939 205.077 58.3481 203.823 56.8619 203.823C55.4199 203.823 54.6519 204.989 54.6519 206.757ZM62.0385 211V202.514H63.6517V203.867H63.7401C64.0495 202.95 64.9003 202.387 65.8893 202.387C66.0992 202.387 66.4307 202.403 66.602 202.425V204.017C66.4639 203.983 66.0716 203.917 65.7346 203.917C64.5688 203.917 63.707 204.718 63.707 205.829V211H62.0385ZM67.4509 211V202.514H69.1195V211H67.4509ZM67.241 200.221C67.241 199.674 67.7161 199.232 68.2963 199.232C68.8653 199.232 69.3405 199.674 69.3405 200.221C69.3405 200.768 68.8653 201.21 68.2963 201.21C67.7161 201.21 67.241 200.768 67.241 200.221ZM72.4226 205.967V211H70.7541V202.514H72.3563V203.901H72.4613C72.8535 202.994 73.6878 202.403 74.964 202.403C76.7044 202.403 77.8535 203.508 77.8535 205.602V211H76.185V205.807C76.185 204.58 75.5165 203.845 74.395 203.845C73.2458 203.845 72.4226 204.613 72.4226 205.967ZM83.4459 202.514V203.845H81.7166V208.503C81.7166 209.459 82.1918 209.63 82.7332 209.635C82.9708 209.635 83.341 209.613 83.5619 209.602V211.039C83.341 211.077 82.9818 211.11 82.5288 211.11C81.2194 211.11 80.0426 210.392 80.0481 208.845V203.845H78.805V202.514H80.0481V200.481H81.7166V202.514H83.4459ZM85.1535 206.309C85.1535 203.536 85.8938 201.232 87.3027 199.265H88.833C87.7446 200.724 86.8828 203.685 86.8828 206.309C86.8828 208.934 87.7446 211.901 88.833 213.359H87.3027C85.8938 211.392 85.1535 209.083 85.1535 206.309ZM90.1242 211V199.685H91.8424V204.597H97.4722V199.685H99.196V211H97.4722V206.072H91.8424V211H90.1242ZM104.63 211.171C102.127 211.171 100.585 209.448 100.585 206.812C100.585 204.204 102.149 202.403 104.508 202.403C106.442 202.403 108.281 203.602 108.281 206.669V207.26H102.243C102.287 208.878 103.237 209.801 104.641 209.801C105.585 209.801 106.199 209.392 106.48 208.867H108.171C107.795 210.254 106.491 211.171 104.63 211.171ZM102.248 206.011H106.641C106.635 204.724 105.801 203.773 104.53 203.773C103.193 203.773 102.326 204.818 102.248 206.011ZM111.204 199.685V211H109.535V199.685H111.204ZM114.507 199.685V211H112.838V199.685H114.507ZM119.727 211.171C117.329 211.171 115.76 209.42 115.76 206.796C115.76 204.155 117.329 202.403 119.727 202.403C122.119 202.403 123.683 204.155 123.683 206.796C123.683 209.42 122.119 211.171 119.727 211.171ZM117.44 206.79C117.44 208.414 118.18 209.779 119.733 209.779C121.269 209.779 122.003 208.414 122.003 206.79C122.003 205.171 121.269 203.79 119.733 203.79C118.18 203.79 117.44 205.171 117.44 206.79ZM126.946 209.906L125.692 214.227H124.366L125.2 209.906H126.946ZM134.499 211L131.361 199.685H133.173L135.372 208.431H135.477L137.764 199.685H139.554L141.842 208.436H141.941L144.14 199.685H145.952L142.814 211H141.079L138.704 202.547H138.615L136.24 211H134.499ZM149.565 211.171C147.167 211.171 145.598 209.42 145.598 206.796C145.598 204.155 147.167 202.403 149.565 202.403C151.957 202.403 153.521 204.155 153.521 206.796C153.521 209.42 151.957 211.171 149.565 211.171ZM147.277 206.79C147.277 208.414 148.018 209.779 149.57 209.779C151.106 209.779 151.841 208.414 151.841 206.79C151.841 205.171 151.106 203.79 149.57 203.79C148.018 203.79 147.277 205.171 147.277 206.79ZM154.767 211V202.514H156.38V203.867H156.468C156.778 202.95 157.628 202.387 158.617 202.387C158.827 202.387 159.159 202.403 159.33 202.425V204.017C159.192 203.983 158.8 203.917 158.463 203.917C157.297 203.917 156.435 204.718 156.435 205.829V211H154.767ZM161.848 199.685V211H160.179V199.685H161.848ZM166.659 211.166C164.604 211.166 163.107 209.519 163.107 206.773C163.107 204.017 164.626 202.403 166.676 202.403C168.25 202.403 168.819 203.359 169.118 203.89H169.206V199.685H170.874V211H169.245V209.68H169.118C168.808 210.227 168.206 211.166 166.659 211.166ZM164.803 206.757C164.803 208.459 165.565 209.746 167.035 209.746C168.449 209.746 169.245 208.53 169.245 206.757C169.245 204.989 168.466 203.823 167.035 203.823C165.548 203.823 164.803 205.077 164.803 206.757ZM174.728 199.685L174.584 207.74H173.042L172.899 199.685H174.728ZM172.711 210C172.7 209.392 173.208 208.895 173.821 208.895C174.418 208.895 174.926 209.392 174.926 210C174.926 210.608 174.418 211.105 173.821 211.105C173.208 211.105 172.7 210.608 172.711 210ZM179.819 206.309C179.819 209.083 179.078 211.387 177.669 213.354H176.139C177.227 211.895 178.089 208.934 178.089 206.309C178.089 203.685 177.227 200.718 176.139 199.26H177.669C179.078 201.227 179.819 203.536 179.819 206.309ZM196.544 198.326V212.354H195.052V198.326H196.544ZM185.428 204.287C185.428 201.287 186.936 199.381 189.047 199.376C191.135 199.381 192.66 201.287 192.66 204.287C192.66 207.304 191.135 209.21 189.047 209.21C186.936 209.21 185.428 207.304 185.428 204.287ZM186.859 204.287C186.859 206.508 187.754 207.878 189.047 207.878C190.34 207.878 191.224 206.508 191.224 204.287C191.224 202.083 190.34 200.713 189.047 200.702C187.754 200.713 186.859 202.083 186.859 204.287ZM210.044 198.326V205.972H208.563V202.188H206.039V200.983H208.563V198.326H210.044ZM198.906 200.088V198.961H205.204V202.536H200.425V203.983C202.735 203.978 204.376 203.917 206.293 203.564L206.425 204.74C204.342 205.088 202.58 205.155 200.022 205.155H198.934V201.47H203.735V200.088H198.906ZM200.464 207.862V206.735H204.663V205.492H206.149V206.735H210.32V207.862H200.464ZM201.436 210.337C201.431 209.061 202.889 208.381 205.392 208.381C207.895 208.381 209.37 209.061 209.37 210.337C209.37 211.635 207.895 212.304 205.392 212.304C202.889 212.304 201.431 211.635 201.436 210.337ZM202.873 210.337C202.873 210.95 203.746 211.26 205.392 211.26C207.039 211.26 207.923 210.95 207.923 210.337C207.923 209.768 207.039 209.425 205.392 209.425C203.746 209.425 202.873 209.768 202.873 210.337ZM223.837 198.326V212.326H222.428V198.326H223.837ZM211.748 208.282C214.721 206.519 216.146 204.16 216.395 201.287H212.411V200.066H217.876C217.87 201.436 217.677 202.74 217.251 203.956H219.478V198.685H220.881V211.646H219.478V205.144H216.737C215.903 206.762 214.572 208.188 212.605 209.337L211.748 208.282ZM233.666 207.597C233.666 208.812 234.257 210.088 235.528 210.867C236.815 210.022 237.44 208.669 237.445 207.597V206.878H238.882V207.597C238.871 209.055 239.849 210.475 241.677 211.066L240.92 212.177C239.55 211.691 238.617 210.746 238.136 209.597C237.688 210.724 236.854 211.762 235.539 212.304C234.208 211.796 233.368 210.796 232.937 209.635C232.44 210.746 231.523 211.685 230.208 212.177L229.456 211.066C231.252 210.442 232.224 208.945 232.235 207.597V206.878H233.666V207.597ZM228.572 204.669C230.18 203.68 230.716 201.746 230.727 200.271V199.094H232.125V200.271C232.119 201.403 232.362 202.994 233.357 204.122C234.335 203.022 234.561 201.453 234.561 200.271V199.094H235.959V200.271C235.959 201.884 236.506 203.718 238.136 204.669L237.296 205.724C236.268 205.127 235.639 204.144 235.28 203.033C234.959 204.171 234.373 205.221 233.346 205.851C232.302 205.193 231.716 204.105 231.401 202.956C231.042 204.077 230.412 205.105 229.39 205.724L228.572 204.669ZM237.103 202.442V201.254H239.141V198.326H240.622V206.448H239.141V202.442H237.103ZM249.266 199.63V200.856H244.349V207.68C246.708 207.669 248.304 207.586 250.15 207.238L250.315 208.453C248.304 208.834 246.603 208.917 243.951 208.917H242.851V199.63H249.266ZM248.481 204.558V203.331H252.371V198.326H253.851V212.354H252.371V204.558H248.481ZM267.208 198.326V212.326H265.738V198.326H267.208ZM256.451 208.768V199.691H257.909V207.492C259.959 207.475 262.108 207.304 264.362 206.84L264.556 208.088C262.081 208.602 259.832 208.773 257.622 208.768H256.451ZM284.567 198.326V212.326H283.142V198.326H284.567ZM272.683 204.37C272.683 201.343 273.871 199.448 275.694 199.448C277.396 199.448 278.551 201.061 278.728 203.691H280.308V198.597H281.722V211.635H280.308V204.895H278.733C278.595 207.63 277.429 209.32 275.694 209.315C273.871 209.32 272.683 207.414 272.683 204.37ZM274.065 204.37C274.054 206.602 274.689 207.912 275.694 207.901C276.728 207.912 277.368 206.602 277.368 204.37C277.368 202.144 276.728 200.84 275.694 200.84C274.689 200.84 274.054 202.144 274.065 204.37ZM297.614 198.326V212.354H296.145V204.823H293.576V203.591H296.145V198.326H297.614ZM286.432 200.801V199.586H292.752V204.597H287.946V207.773C290.183 207.768 291.907 207.696 293.868 207.337L293.984 208.564C291.891 208.934 290.045 209.017 287.57 209.022H286.476V203.387H291.305V200.801H286.432ZM310.291 198.326V203.906H312.462V205.149H310.291V212.309H308.805V198.326H310.291ZM299.39 208.58C302.904 206.829 304.805 204.298 305.12 201.033H300.092V199.807H306.628C306.617 203.845 304.832 207.459 300.219 209.729L299.39 208.58ZM329.397 203.823V205.05H327.225V212.309H325.739V198.326H327.225V203.823H329.397ZM316.85 208.801V199.691H318.325V207.569C320.281 207.552 322.314 207.387 324.529 206.934L324.701 208.188C322.308 208.663 320.104 208.801 317.999 208.801H316.85ZM336.847 199.63V200.856H331.93V207.68C334.289 207.669 335.886 207.586 337.731 207.238L337.897 208.453C335.886 208.834 334.184 208.917 331.532 208.917H330.433V199.63H336.847ZM336.062 204.558V203.331H339.952V198.326H341.433V212.354H339.952V204.558H336.062ZM354.082 198.326V203.801H356.325V205.044H354.082V212.354H352.612V198.326H354.082ZM343.728 200.801V199.586H350.131V204.735H345.225V207.768C347.629 207.762 349.402 207.669 351.446 207.298L351.584 208.508C349.402 208.906 347.513 209 344.888 209.011H343.756V203.536H348.651V200.801H343.728ZM367.93 199.674V201.044C367.924 202.779 367.924 204.713 367.394 207.586L365.902 207.42C366.438 204.713 366.438 202.729 366.449 201.044V200.878H357.946V199.674H367.93ZM356.604 210.436V209.21H361.455V204.271H362.924V209.21H369.366V210.436H356.604ZM382.844 209.354V210.58H370.032V209.354H373.098V205.691C371.943 205.061 371.242 204.055 371.242 202.801C371.242 200.597 373.402 199.149 376.402 199.138C379.413 199.149 381.579 200.597 381.579 202.801C381.579 204.039 380.899 205.028 379.772 205.663V209.354H382.844ZM372.684 202.801C372.684 204.298 374.209 205.276 376.402 205.276C378.584 205.276 380.131 204.298 380.131 202.801C380.131 201.287 378.584 200.326 376.402 200.337C374.209 200.326 372.684 201.287 372.684 202.801ZM374.557 209.354H378.275V206.232C377.7 206.365 377.071 206.436 376.402 206.436C375.739 206.436 375.12 206.365 374.557 206.238V209.354ZM385.068 211.105C384.454 211.105 383.946 210.608 383.957 210C383.946 209.392 384.454 208.895 385.068 208.895C385.664 208.895 386.173 209.392 386.173 210C386.173 210.608 385.664 211.105 385.068 211.105ZM388.084 210C388.073 209.392 388.581 208.895 389.195 208.895C389.791 208.895 390.3 209.392 390.3 210C390.3 210.608 389.791 211.105 389.195 211.105C388.581 211.105 388.073 210.608 388.084 210ZM392.211 210C392.2 209.392 392.709 208.895 393.322 208.895C393.919 208.895 394.427 209.392 394.427 210C394.427 210.608 393.919 211.105 393.322 211.105C392.709 211.105 392.2 210.608 392.211 210Z" fill="#333333"/>
<rect x="52" y="230" width="375" height="77" rx="10" fill="#250D44"/>
<path d="M72.7624 265.387V256.635H73.9848V257.667H74.0884C74.308 257.269 74.739 256.552 75.9157 256.552C77.453 256.552 78.5843 257.762 78.5843 259.83C78.5843 261.89 77.4696 263.124 75.9282 263.124C74.7721 263.124 74.3122 262.42 74.0884 262.01H74.0138V265.387H72.7624ZM73.989 259.818C73.989 261.148 74.5815 262.059 75.6464 262.059C76.7486 262.059 77.3204 261.094 77.3204 259.818C77.3204 258.558 76.761 257.617 75.6464 257.617C74.5649 257.617 73.989 258.492 73.989 259.818ZM79.5288 263V256.635H80.7388V257.651H80.8051C81.0371 256.963 81.6752 256.54 82.417 256.54C82.5744 256.54 82.823 256.552 82.9515 256.569V257.762C82.8479 257.738 82.5537 257.688 82.3009 257.688C81.4266 257.688 80.7802 258.289 80.7802 259.122V263H79.5288ZM83.5882 263V256.635H84.8396V263H83.5882ZM83.4308 254.916C83.4308 254.506 83.7871 254.174 84.2222 254.174C84.649 254.174 85.0053 254.506 85.0053 254.916C85.0053 255.326 84.649 255.657 84.2222 255.657C83.7871 255.657 83.4308 255.326 83.4308 254.916ZM87.3169 259.225V263H86.0656V256.635H87.2672V257.675H87.3459C87.6401 256.996 88.2658 256.552 89.223 256.552C90.5283 256.552 91.3901 257.381 91.3901 258.952V263H90.1388V259.105C90.1388 258.185 89.6374 257.634 88.7962 257.634C87.9343 257.634 87.3169 258.21 87.3169 259.225ZM95.5844 256.635V257.634H94.2875V261.127C94.2875 261.844 94.6438 261.972 95.0499 261.977C95.2281 261.977 95.5057 261.96 95.6715 261.952V263.029C95.5057 263.058 95.2364 263.083 94.8966 263.083C93.9146 263.083 93.032 262.544 93.0361 261.384V257.634H92.1038V256.635H93.0361V255.11H94.2875V256.635H95.5844Z" fill="#FA787A"/>
<path d="M96.8651 259.482C96.8651 257.402 97.4204 255.674 98.477 254.199H99.6248C98.8085 255.293 98.1621 257.514 98.1621 259.482C98.1621 261.45 98.8085 263.675 99.6248 264.769H98.477C97.4204 263.294 96.8651 261.562 96.8651 259.482ZM100.593 263V254.514H101.882V258.198H106.104V254.514H107.397V263H106.104V259.304H101.882V263H100.593ZM111.472 263.128C109.595 263.128 108.439 261.836 108.439 259.859C108.439 257.903 109.612 256.552 111.381 256.552C112.831 256.552 114.211 257.452 114.211 259.751V260.195H109.682C109.715 261.409 110.428 262.101 111.48 262.101C112.189 262.101 112.649 261.794 112.86 261.401H114.128C113.846 262.441 112.869 263.128 111.472 263.128ZM109.686 259.258H112.98C112.976 258.293 112.351 257.58 111.398 257.58C110.395 257.58 109.744 258.363 109.686 259.258ZM116.403 254.514V263H115.151V254.514H116.403ZM118.88 254.514V263H117.629V254.514H118.88ZM122.795 263.128C120.997 263.128 119.82 261.815 119.82 259.847C119.82 257.866 120.997 256.552 122.795 256.552C124.59 256.552 125.762 257.866 125.762 259.847C125.762 261.815 124.59 263.128 122.795 263.128ZM121.08 259.843C121.08 261.061 121.635 262.084 122.8 262.084C123.951 262.084 124.503 261.061 124.503 259.843C124.503 258.628 123.951 257.593 122.8 257.593C121.635 257.593 121.08 258.628 121.08 259.843ZM128.209 262.18L127.269 265.42H126.274L126.9 262.18H128.209ZM133.874 263L131.521 254.514H132.88L134.529 261.073H134.608L136.323 254.514H137.666L139.381 261.077H139.456L141.105 254.514H142.464L140.111 263H138.81L137.028 256.66H136.961L135.18 263H133.874ZM145.174 263.128C143.375 263.128 142.198 261.815 142.198 259.847C142.198 257.866 143.375 256.552 145.174 256.552C146.968 256.552 148.14 257.866 148.14 259.847C148.14 261.815 146.968 263.128 145.174 263.128ZM143.458 259.843C143.458 261.061 144.013 262.084 145.178 262.084C146.33 262.084 146.881 261.061 146.881 259.843C146.881 258.628 146.33 257.593 145.178 257.593C144.013 257.593 143.458 258.628 143.458 259.843ZM149.075 263V256.635H150.285V257.651H150.351C150.583 256.963 151.221 256.54 151.963 256.54C152.121 256.54 152.369 256.552 152.498 256.569V257.762C152.394 257.738 152.1 257.688 151.847 257.688C150.973 257.688 150.326 258.289 150.326 259.122V263H149.075ZM154.386 254.514V263H153.134V254.514H154.386ZM157.994 263.124C156.453 263.124 155.33 261.89 155.33 259.83C155.33 257.762 156.469 256.552 158.007 256.552C159.188 256.552 159.614 257.269 159.838 257.667H159.904V254.514H161.156V263H159.933V262.01H159.838C159.606 262.42 159.154 263.124 157.994 263.124ZM156.602 259.818C156.602 261.094 157.174 262.059 158.276 262.059C159.337 262.059 159.933 261.148 159.933 259.818C159.933 258.492 159.349 257.617 158.276 257.617C157.161 257.617 156.602 258.558 156.602 259.818ZM164.046 254.514L163.938 260.555H162.782L162.674 254.514H164.046ZM162.533 262.25C162.525 261.794 162.906 261.421 163.366 261.421C163.814 261.421 164.195 261.794 164.195 262.25C164.195 262.706 163.814 263.079 163.366 263.079C162.906 263.079 162.525 262.706 162.533 262.25ZM167.864 259.482C167.864 261.562 167.309 263.29 166.252 264.765H165.104C165.921 263.671 166.567 261.45 166.567 259.482C166.567 257.514 165.921 255.289 165.104 254.195H166.252C167.309 255.67 167.864 257.402 167.864 259.482Z" fill="white"/>
<rect x="52.5" y="319.5" width="52" height="33" rx="16.5" fill="white"/>
<rect x="52.5" y="319.5" width="52" height="33" rx="16.5" stroke="#DBDBDB"/>
<path d="M66.5925 341L67.0276 338.351H64.7217L64.2866 341H63.1119L63.547 338.351H62.116L62.3046 337.191H63.7355L64.1126 334.909H62.6913L62.8798 333.749H64.3011L64.7362 331.099H65.9109L65.4758 333.749H67.7818L68.2169 331.099H69.3916L68.9565 333.749H70.3923L70.1989 334.909H68.768L68.3909 337.191H69.817L69.6188 338.351H68.2023L67.7673 341H66.5925ZM64.9102 337.191H67.2162L67.5932 334.909H65.2873L64.9102 337.191ZM81.761 335.286V336.258H76.8252V337.282H80.359V340.048H73.2333V341.058H80.7119V342.044H71.9619V339.148H79.0828V338.23H71.9377V337.282H75.5393V336.258H70.6228V335.286H81.761ZM71.1643 333.826C73.5137 333.695 75.167 332.975 75.4281 331.936H71.7299V330.945H75.5441V329.862H76.8203V330.945H80.6539V331.936H76.9315C77.1877 332.975 78.8411 333.695 81.2098 333.826L80.8183 334.802C78.6864 334.648 76.946 334.029 76.1822 332.956C75.4184 334.029 73.6781 334.648 71.5365 334.802L71.1643 333.826ZM88.188 330.65V334.218H84.1514V335.919C86.2833 335.914 87.4436 335.866 88.8165 335.61L88.9422 336.669C87.4484 336.92 86.1915 336.959 83.7502 336.963H82.8655V333.231H86.8973V331.684H82.8414V330.65H88.188ZM84.2481 339.124V338.075H92.5679V342.175H91.2723V339.124H84.2481ZM88.9664 335.305V334.256H91.2723V332.743H88.9664V331.704H91.2723V329.92H92.5679V337.452H91.2723V335.305H88.9664Z" fill="#767676"/>
<rect x="109.5" y="319.5" width="52" height="33" rx="16.5" fill="white"/>
<rect x="109.5" y="319.5" width="52" height="33" rx="16.5" stroke="#DBDBDB"/>
<path d="M123.593 341L124.028 338.351H121.722L121.287 341H120.112L120.547 338.351H119.116L119.305 337.191H120.735L121.113 334.909H119.691L119.88 333.749H121.301L121.736 331.099H122.911L122.476 333.749H124.782L125.217 331.099H126.392L125.956 333.749H127.392L127.199 334.909H125.768L125.391 337.191H126.817L126.619 338.351H125.202L124.767 341H123.593ZM121.91 337.191H124.216L124.593 334.909H122.287L121.91 337.191ZM137.818 329.92V338.974H136.523V335.789H133.845V336.934H128.188V330.727H129.489V332.806H132.559V330.727H133.845V332.105H136.523V329.92H137.818ZM129.489 335.89H132.559V333.811H129.489V335.89ZM129.818 341.909V338.085H131.128V340.845H138.094V341.909H129.818ZM133.845 334.73H136.523V333.164H133.845V334.73ZM145.623 330.988C145.623 332.617 147.61 334.145 150.022 334.469L149.505 335.528C147.504 335.209 145.749 334.164 144.951 332.724C144.154 334.174 142.399 335.209 140.407 335.528L139.885 334.469C142.287 334.145 144.27 332.637 144.27 330.988V330.321H145.623V330.988ZM139.358 337.805V336.731H150.525V337.805H145.551V342.16H144.274V337.805H139.358Z" fill="#767676"/>
<rect x="166.5" y="319.5" width="63" height="33" rx="16.5" fill="white"/>
<rect x="166.5" y="319.5" width="63" height="33" rx="16.5" stroke="#DBDBDB"/>
<path d="M180.593 341L181.028 338.351H178.722L178.287 341H177.112L177.547 338.351H176.116L176.305 337.191H177.735L178.113 334.909H176.691L176.88 333.749H178.301L178.736 331.099H179.911L179.476 333.749H181.782L182.217 331.099H183.392L182.956 333.749H184.392L184.199 334.909H182.768L182.391 337.191H183.817L183.619 338.351H182.202L181.767 341H180.593ZM178.91 337.191H181.216L181.593 334.909H179.287L178.91 337.191ZM195.819 339.564V340.633H184.608V339.564H189.554V336.664H190.854V339.564H195.819ZM185.126 336.108C187.403 335.721 189.515 334.019 189.515 332.148V332.037H185.537V330.959H194.847V332.037H190.869V332.148C190.869 334.019 192.991 335.687 195.326 336.05L194.799 337.075C192.822 336.702 190.999 335.557 190.202 333.947C189.409 335.576 187.601 336.751 185.653 337.133L185.126 336.108ZM206.568 329.92V338.941H205.272V334.691H202.729V333.618H205.272V329.92H206.568ZM196.537 336.543C199.263 335.663 201.115 333.995 201.381 331.921H197.16V330.843H202.802C202.792 334.039 200.598 336.446 197.083 337.582L196.537 336.543ZM198.674 341.909V338.022H199.993V340.845H206.877V341.909H198.674ZM219.299 336.103V337.162H214.44V339.535H213.155V337.162H208.088V336.103H219.299ZM209.485 341.909V338.375H210.781V340.845H218.056V341.909H209.485ZM209.529 334.836V330.485H217.849V334.836H209.529ZM210.8 333.811H216.567V331.51H210.8V333.811Z" fill="#767676"/>
<rect x="234.5" y="319.5" width="71" height="33" rx="16.5" fill="white"/>
<rect x="234.5" y="319.5" width="71" height="33" rx="16.5" stroke="#DBDBDB"/>
<path d="M248.593 341L249.028 338.351H246.722L246.287 341H245.112L245.547 338.351H244.116L244.305 337.191H245.735L246.113 334.909H244.691L244.88 333.749H246.301L246.736 331.099H247.911L247.476 333.749H249.782L250.217 331.099H251.392L250.956 333.749H252.392L252.199 334.909H250.768L250.391 337.191H251.817L251.619 338.351H250.202L249.767 341H248.593ZM246.91 337.191H249.216L249.593 334.909H247.287L246.91 337.191ZM253.159 341V331.099H256.698C258.994 331.099 260.126 332.482 260.126 334.309C260.126 336.137 258.99 337.529 256.693 337.529H254.663V341H253.159ZM254.663 336.248H256.543C258.003 336.248 258.612 335.426 258.612 334.309C258.612 333.193 258.003 332.39 256.539 332.39H254.663V336.248ZM262.138 343.785C261.838 343.785 261.548 343.775 261.354 343.756L261.364 342.532C261.528 342.547 261.809 342.552 262.017 342.552C262.466 342.552 262.848 342.523 263.191 341.585L263.375 341.102L260.653 333.575H262.215L264.086 339.332H264.163L266.044 333.575H267.605L264.545 341.986C264.115 343.161 263.361 343.785 262.138 343.785ZM271.92 333.575V334.74H270.407V338.815C270.407 339.651 270.822 339.801 271.296 339.806C271.504 339.806 271.828 339.787 272.021 339.777V341.034C271.828 341.068 271.514 341.097 271.117 341.097C269.972 341.097 268.942 340.468 268.947 339.115V334.74H267.859V333.575H268.947V331.796H270.407V333.575H271.92ZM274.604 336.596V341H273.144V331.099H274.584V334.788H274.676C275.024 333.985 275.716 333.478 276.876 333.478C278.403 333.478 279.419 334.425 279.419 336.277V341H277.959V336.456C277.959 335.368 277.369 334.74 276.378 334.74C275.353 334.74 274.604 335.412 274.604 336.596ZM283.97 341.15C281.872 341.15 280.499 339.617 280.499 337.321C280.499 335.01 281.872 333.478 283.97 333.478C286.064 333.478 287.432 335.01 287.432 337.321C287.432 339.617 286.064 341.15 283.97 341.15ZM281.969 337.316C281.969 338.738 282.617 339.932 283.975 339.932C285.319 339.932 285.962 338.738 285.962 337.316C285.962 335.9 285.319 334.691 283.975 334.691C282.617 334.691 281.969 335.9 281.969 337.316ZM289.982 336.596V341H288.522V333.575H289.924V334.788H290.016C290.359 333.995 291.089 333.478 292.206 333.478C293.728 333.478 294.734 334.445 294.734 336.277V341H293.274V336.456C293.274 335.383 292.689 334.74 291.708 334.74C290.702 334.74 289.982 335.412 289.982 336.596Z" fill="#767676"/>
</g>
<defs>
<filter id="filter0_dd_388_6536" x="0" y="0" width="476" height="417" filterUnits="userSpaceOnUse" color-interpolation-filters="sRGB">
<feFlood flood-opacity="0" result="BackgroundImageFix"/>
<feColorMatrix in="SourceAlpha" type="matrix" values="0 0 0 0 0 0 0 0 0 0 0 0 0 0 0 0 0 0 127 0" result="hardAlpha"/>
<feOffset dy="4"/>
<feGaussianBlur stdDeviation="10"/>
<feComposite in2="hardAlpha" operator="out"/>
<feColorMatrix type="matrix" values="0 0 0 0 0 0 0 0 0 0 0 0 0 0 0 0 0 0 0.05 0"/>
<feBlend mode="normal" in2="BackgroundImageFix" result="effect1_dropShadow_388_6536"/>
<feColorMatrix in="SourceAlpha" type="matrix" values="0 0 0 0 0 0 0 0 0 0 0 0 0 0 0 0 0 0 127 0" result="hardAlpha"/>
<feOffset/>
<feGaussianBlur stdDeviation="0.5"/>
<feComposite in2="hardAlpha" operator="out"/>
<feColorMatrix type="matrix" values="0 0 0 0 0 0 0 0 0 0 0 0 0 0 0 0 0 0 0.15 0"/>
<feBlend mode="normal" in2="effect1_dropShadow_388_6536" result="effect2_dropShadow_388_6536"/>
<feBlend mode="normal" in="SourceGraphic" in2="effect2_dropShadow_388_6536" result="shape"/>
</filter>
<filter id="filter1_d_388_6536" x="52.1442" y="94.5728" width="49.7115" height="55.4186" filterUnits="userSpaceOnUse" color-interpolation-filters="sRGB">
<feFlood flood-opacity="0" result="BackgroundImageFix"/>
<feColorMatrix in="SourceAlpha" type="matrix" values="0 0 0 0 0 0 0 0 0 0 0 0 0 0 0 0 0 0 127 0" result="hardAlpha"/>
<feOffset dy="1.28205"/>
<feGaussianBlur stdDeviation="1.60256"/>
<feComposite in2="hardAlpha" operator="out"/>
<feColorMatrix type="matrix" values="0 0 0 0 0 0 0 0 0 0 0 0 0 0 0 0 0 0 0.1 0"/>
<feBlend mode="normal" in2="BackgroundImageFix" result="effect1_dropShadow_388_6536"/>
<feBlend mode="normal" in="SourceGraphic" in2="effect1_dropShadow_388_6536" result="shape"/>
</filter>
<filter id="filter2_i_388_6536" x="62.2887" y="104.509" width="29.4226" height="32.9827" filterUnits="userSpaceOnUse" color-interpolation-filters="sRGB">
<feFlood flood-opacity="0" result="BackgroundImageFix"/>
<feBlend mode="normal" in="SourceGraphic" in2="BackgroundImageFix" result="shape"/>
<feColorMatrix in="SourceAlpha" type="matrix" values="0 0 0 0 0 0 0 0 0 0 0 0 0 0 0 0 0 0 127 0" result="hardAlpha"/>
<feOffset/>
<feGaussianBlur stdDeviation="1.60256"/>
<feComposite in2="hardAlpha" operator="arithmetic" k2="-1" k3="1"/>
<feColorMatrix type="matrix" values="0 0 0 0 0.737248 0 0 0 0 0.565975 0 0 0 0 0.0521562 0 0 0 0.25 0"/>
<feBlend mode="normal" in2="shape" result="effect1_innerShadow_388_6536"/>
</filter>
<filter id="filter3_d_388_6536" x="68.061" y="116.596" width="19.87" height="10.0546" filterUnits="userSpaceOnUse" color-interpolation-filters="sRGB">
<feFlood flood-opacity="0" result="BackgroundImageFix"/>
<feColorMatrix in="SourceAlpha" type="matrix" values="0 0 0 0 0 0 0 0 0 0 0 0 0 0 0 0 0 0 127 0" result="hardAlpha"/>
<feOffset dy="0.320513"/>
<feGaussianBlur stdDeviation="0.641026"/>
<feComposite in2="hardAlpha" operator="out"/>
<feColorMatrix type="matrix" values="0 0 0 0 0 0 0 0 0 0 0 0 0 0 0 0 0 0 0.1 0"/>
<feBlend mode="normal" in2="BackgroundImageFix" result="effect1_dropShadow_388_6536"/>
<feBlend mode="normal" in="SourceGraphic" in2="effect1_dropShadow_388_6536" result="shape"/>
</filter>
<linearGradient id="paint0_linear_388_6536" x1="81.3269" y1="96.8013" x2="67.5449" y2="146.801" gradientUnits="userSpaceOnUse">
<stop stop-color="#FFF4BC"/>
<stop offset="0.341346" stop-color="white"/>
<stop offset="0.865385" stop-color="#FFEECE"/>
</linearGradient>
<linearGradient id="paint1_linear_388_6536" x1="86.1346" y1="98.5641" x2="65.782" y2="148.404" gradientUnits="userSpaceOnUse">
<stop stop-color="#FFE893"/>
<stop offset="0.403846" stop-color="white"/>
<stop offset="1" stop-color="#FFEBDB"/>
</linearGradient>
<linearGradient id="paint2_linear_388_6536" x1="78.1666" y1="114.91" x2="78.1666" y2="126.91" gradientUnits="userSpaceOnUse">
<stop stop-color="white"/>
<stop offset="0.375" stop-color="#FFF6DE"/>
<stop offset="1" stop-color="white"/>
</linearGradient>
</defs>
</svg>
